<svg xmlns="http://www.w3.org/2000/svg" xmlns:xlink="http://www.w3.org/1999/xlink" viewBox="0 0 572.73 565.28"><defs><style>.cls-1,.cls-8{fill:#d372f7;}.cls-2{fill:#9217e1;}.cls-3,.cls-9{fill:#ff83bf;}.cls-13,.cls-4{fill:#c616ff;}.cls-5{fill:#7218ce;}.cls-6{fill:#2e19a6;}.cls-7{fill:#4519b3;}.cls-8{opacity:0.39;}.cls-10,.cls-11,.cls-12,.cls-13,.cls-23,.cls-24,.cls-25,.cls-32,.cls-33,.cls-34,.cls-9{fill-rule:evenodd;}.cls-10{fill:url(#Áåçûìÿííûé_ãðàäèåíò_225);}.cls-11{fill:url(#Dégradé_sans_nom_14);}.cls-12{fill:url(#Dégradé_sans_nom_14-2);}.cls-14{fill:url(#Dégradé_sans_nom_14-3);}.cls-15{fill:url(#Dégradé_sans_nom_14-4);}.cls-16{fill:url(#Dégradé_sans_nom_14-5);}.cls-17{fill:url(#Dégradé_sans_nom_14-6);}.cls-18{fill:url(#Dégradé_sans_nom_14-7);}.cls-19{fill:url(#Dégradé_sans_nom_14-8);}.cls-20{fill:#875206;}.cls-21{fill:#563202;}.cls-22{fill:#ffc000;}.cls-23{fill:url(#Áåçûìÿííûé_ãðàäèåíò_225-2);}.cls-24{fill:url(#Dégradé_sans_nom_14-9);}.cls-25{fill:url(#Dégradé_sans_nom_14-10);}.cls-26{fill:url(#Dégradé_sans_nom_14-11);}.cls-27{fill:url(#Dégradé_sans_nom_14-12);}.cls-28{fill:url(#Dégradé_sans_nom_14-13);}.cls-29{fill:url(#Dégradé_sans_nom_14-14);}.cls-30{fill:url(#Dégradé_sans_nom_14-15);}.cls-31{fill:url(#Dégradé_sans_nom_14-16);}.cls-32{fill:url(#Áåçûìÿííûé_ãðàäèåíò_225-3);}.cls-33{fill:url(#Dégradé_sans_nom_14-17);}.cls-34{fill:url(#Dégradé_sans_nom_14-18);}.cls-35{fill:url(#Dégradé_sans_nom_14-19);}.cls-36{fill:url(#Dégradé_sans_nom_14-20);}.cls-37{fill:url(#Dégradé_sans_nom_14-21);}.cls-38{fill:url(#Dégradé_sans_nom_14-22);}.cls-39{fill:url(#Dégradé_sans_nom_14-23);}.cls-40{fill:url(#Dégradé_sans_nom_14-24);}</style><radialGradient id="Áåçûìÿííûé_ãðàäèåíò_225" cx="-4575.69" cy="1304.4" r="30.98" gradientTransform="matrix(-1.88, 0.77, 0.7, 1.7, -9233.38, 1359.59)" gradientUnits="userSpaceOnUse"><stop offset="0" stop-color="#f06"/><stop offset="1" stop-color="#590048"/></radialGradient><linearGradient id="Dégradé_sans_nom_14" x1="-6304.65" y1="985.26" x2="-6249.11" y2="985.26" gradientTransform="matrix(-0.93, 0.38, 0.38, 0.93, -5909.5, 1523.71)" gradientUnits="userSpaceOnUse"><stop offset="0.12" stop-color="#c616ff"/><stop offset="0.87" stop-color="#2e19a6"/></linearGradient><linearGradient id="Dégradé_sans_nom_14-2" x1="-6350.18" y1="959.01" x2="-6287.3" y2="981.56" xlink:href="#Dégradé_sans_nom_14"/><linearGradient id="Dégradé_sans_nom_14-3" x1="-247.73" y1="3242.18" x2="-230.26" y2="3242.18" gradientTransform="matrix(-0.66, 0.75, 0.75, 0.66, -2250.21, -1919.22)" xlink:href="#Dégradé_sans_nom_14"/><linearGradient id="Dégradé_sans_nom_14-4" x1="-242.85" y1="3206.02" x2="-197.77" y2="3241.24" gradientTransform="matrix(-0.66, 0.75, 0.75, 0.66, -2250.21, -1919.22)" xlink:href="#Dégradé_sans_nom_14"/><linearGradient id="Dégradé_sans_nom_14-5" x1="-5933.63" y1="-9.35" x2="-5935.25" y2="37.57" gradientTransform="matrix(-1, 0, 0, 1, -5612.09, 0)" xlink:href="#Dégradé_sans_nom_14"/><linearGradient id="Dégradé_sans_nom_14-6" x1="-5894.41" y1="36.1" x2="-5924.07" y2="35.56" gradientTransform="matrix(-1, 0, 0, 1, -5612.09, 0)" xlink:href="#Dégradé_sans_nom_14"/><linearGradient id="Dégradé_sans_nom_14-7" x1="-5939.59" y1="74.77" x2="-5935.82" y2="44.57" gradientTransform="matrix(-1, 0, 0, 1, -5612.09, 0)" xlink:href="#Dégradé_sans_nom_14"/><linearGradient id="Dégradé_sans_nom_14-8" x1="-5928.11" y1="41.3" x2="-5946.99" y2="23.51" gradientTransform="matrix(-1, 0, 0, 1, -5612.09, 0)" xlink:href="#Dégradé_sans_nom_14"/><radialGradient id="Áåçûìÿííûé_ãðàäèåíò_225-2" cx="-4504.08" cy="1053.13" r="30.98" gradientTransform="matrix(-2.04, 0, 0, 1.84, -8625.06, -1413.23)" xlink:href="#Áåçûìÿííûé_ãðàäèåíò_225"/><linearGradient id="Dégradé_sans_nom_14-9" x1="-6158.92" y1="523.55" x2="-6103.38" y2="523.55" gradientTransform="matrix(-1, 0, 0, 1, -5612.09, 0)" xlink:href="#Dégradé_sans_nom_14"/><linearGradient id="Dégradé_sans_nom_14-10" x1="-6204.45" y1="497.3" x2="-6141.57" y2="519.84" gradientTransform="matrix(-1, 0, 0, 1, -5612.09, 0)" xlink:href="#Dégradé_sans_nom_14"/><linearGradient id="Dégradé_sans_nom_14-11" x1="12.09" y1="3665.24" x2="29.56" y2="3665.24" gradientTransform="matrix(-0.66, 0.75, 0.75, 0.66, -2250.21, -1919.22)" xlink:href="#Dégradé_sans_nom_14"/><linearGradient id="Dégradé_sans_nom_14-12" x1="16.97" y1="3629.08" x2="62.05" y2="3664.3" gradientTransform="matrix(-0.66, 0.75, 0.75, 0.66, -2250.21, -1919.22)" xlink:href="#Dégradé_sans_nom_14"/><linearGradient id="Dégradé_sans_nom_14-13" x1="-6081.65" y1="464.56" x2="-6083.27" y2="511.48" gradientTransform="matrix(-1, 0, 0, 1, -5612.09, 0)" xlink:href="#Dégradé_sans_nom_14"/><linearGradient id="Dégradé_sans_nom_14-14" x1="-6042.42" y1="510.01" x2="-6072.08" y2="509.47" gradientTransform="matrix(-1, 0, 0, 1, -5612.09, 0)" xlink:href="#Dégradé_sans_nom_14"/><linearGradient id="Dégradé_sans_nom_14-15" x1="-6087.61" y1="548.68" x2="-6083.83" y2="518.48" gradientTransform="matrix(-1, 0, 0, 1, -5612.09, 0)" xlink:href="#Dégradé_sans_nom_14"/><linearGradient id="Dégradé_sans_nom_14-16" x1="-6076.12" y1="515.22" x2="-6095" y2="497.42" gradientTransform="matrix(-1, 0, 0, 1, -5612.09, 0)" xlink:href="#Dégradé_sans_nom_14"/><radialGradient id="Áåçûìÿííûé_ãðàäèåíò_225-3" cx="-4400.44" cy="1502.6" r="30.98" xlink:href="#Áåçûìÿííûé_ãðàäèåíò_225"/><linearGradient id="Dégradé_sans_nom_14-17" x1="-5948.01" y1="1349.45" x2="-5892.47" y2="1349.45" xlink:href="#Dégradé_sans_nom_14"/><linearGradient id="Dégradé_sans_nom_14-18" x1="-5993.54" y1="1323.2" x2="-5930.66" y2="1345.74" xlink:href="#Dégradé_sans_nom_14"/><linearGradient id="Dégradé_sans_nom_14-19" x1="234.2" y1="3408.15" x2="251.67" y2="3408.15" gradientTransform="matrix(-0.66, 0.75, 0.75, 0.66, -2250.21, -1919.22)" xlink:href="#Dégradé_sans_nom_14"/><linearGradient id="Dégradé_sans_nom_14-20" x1="239.08" y1="3371.98" x2="284.16" y2="3407.21" gradientTransform="matrix(-0.66, 0.75, 0.75, 0.66, -2250.21, -1919.22)" xlink:href="#Dégradé_sans_nom_14"/><linearGradient id="Dégradé_sans_nom_14-21" x1="-5741.88" y1="462.93" x2="-5743.5" y2="509.85" gradientTransform="matrix(-1, 0, 0, 1, -5612.09, 0)" xlink:href="#Dégradé_sans_nom_14"/><linearGradient id="Dégradé_sans_nom_14-22" x1="-5702.66" y1="508.39" x2="-5732.32" y2="507.85" gradientTransform="matrix(-1, 0, 0, 1, -5612.09, 0)" xlink:href="#Dégradé_sans_nom_14"/><linearGradient id="Dégradé_sans_nom_14-23" x1="-5747.84" y1="547.06" x2="-5744.07" y2="516.86" gradientTransform="matrix(-1, 0, 0, 1, -5612.09, 0)" xlink:href="#Dégradé_sans_nom_14"/><linearGradient id="Dégradé_sans_nom_14-24" x1="-5736.36" y1="513.59" x2="-5755.23" y2="495.79" gradientTransform="matrix(-1, 0, 0, 1, -5612.09, 0)" xlink:href="#Dégradé_sans_nom_14"/></defs><g id="Calque_2" data-name="Calque 2"><g id="Calque_1-2" data-name="Calque 1"><polygon class="cls-1" points="244.23 32.9 217.18 43.67 194.62 41.02 208.89 25.06 235.94 14.29 255.91 15.54 244.23 32.9"/><path class="cls-2" d="M215.65,35c0-.06,0-.1,0-.17s-.14-.16-.17-.28c-1.36-3.72-3.78-6.76-4.63-10.23l-1.94.78L194.62,41l22.47,2.64A57.21,57.21,0,0,0,215.65,35Z"/><path class="cls-2" d="M235.94,14.29l-1.53.6c1.58,3.47,3.17,6.88,3.67,10.7a4.38,4.38,0,0,1,.58.41c1.69,2.35,4,4.31,5.84,6.5l11.41-17Z"/><polygon class="cls-3" points="244.23 32.9 217.18 43.67 194.62 41.02 216.6 42.32 243.71 31.68 255.91 15.54 244.23 32.9"/><polygon class="cls-4" points="240.49 27.32 215.81 37.15 200.66 35.76 210.19 24.52 234.87 14.7 250.02 16.1 240.49 27.32"/><polygon class="cls-4" points="194.62 41.02 191.75 60.87 215.71 63.02 217.18 43.67 194.62 41.02"/><polygon class="cls-4" points="244.23 32.9 259.11 46.64 273.76 26.13 255.91 15.54 244.23 32.9"/><polygon class="cls-5" points="217.18 43.67 215.71 63.02 259.11 46.64 244.23 32.9 217.18 43.67"/><polygon class="cls-3" points="216.1 43.24 215.71 63.02 218.49 43.15 216.1 43.24"/><polygon class="cls-3" points="244.5 31.62 259.17 46.77 242.55 33.25 244.5 31.62"/><polygon class="cls-6" points="191.75 60.87 245.73 77.33 215.71 63.02 191.75 60.87"/><polygon class="cls-7" points="215.71 63.02 245.73 77.33 259.11 46.64 215.71 63.02"/><polygon class="cls-6" points="273.76 26.13 245.73 77.33 259.11 46.64 273.76 26.13"/><path class="cls-8" d="M193.93,44.76l-2.18,16.11,54,16.46L257.58,55.7S234.53,76,193.93,44.76Z"/><polygon class="cls-9" points="295.8 22.41 287.48 31.92 294 34.51 295.8 22.41"/><polygon class="cls-10" points="295.92 52.36 294.05 34.48 287.53 31.89 246.56 65.05 256.77 74.3 295.92 52.36"/><polygon class="cls-11" points="295.92 52.36 294.05 34.48 287.53 31.89 246.56 65.05 256.77 74.3 295.92 52.36"/><polygon class="cls-12" points="307.89 0 295.8 22.41 294 34.42 295.87 52.3 307.89 0"/><polygon class="cls-13" points="307.93 0.03 271.98 11.89 243.24 41.32 246.54 65.02 287.51 31.86 295.85 22.43 307.93 0.03"/><polygon class="cls-14" points="352.09 43.44 340.82 35.48 340.48 29.74 350.54 20.78 352.09 43.44"/><polygon class="cls-15" points="333.42 5.84 350.54 20.78 352.09 43.44 337.15 60.57 314.49 62.11 297.35 47.18 295.81 24.5 310.76 7.38 333.42 5.84"/><polygon class="cls-5" points="352.09 43.44 337.15 60.57 314.49 62.11 297.35 47.18 307.69 37.08 333.52 29.09 352.09 43.44"/><polygon class="cls-16" points="325.61 16.78 321.06 16.94 310.76 7.38 333.42 5.84 325.61 16.78"/><polygon class="cls-17" points="307.69 37.08 297.35 47.18 295.81 24.5 307.4 32.61 307.69 37.08"/><polygon class="cls-18" points="337.15 60.57 314.49 62.11 322.49 49.99 327.95 50.23 337.15 60.57"/><polygon class="cls-4" points="325.61 16.78 340.48 29.74 340.82 35.48 327.95 50.23 322.49 49.99 307.69 37.08 307.4 32.61 321.06 16.94 325.61 16.78"/><polygon class="cls-19" points="325.1 21.54 335.65 30.75 335.9 34.82 326.76 45.29 322.89 45.13 312.36 35.95 312.17 32.79 321.87 21.66 325.1 21.54"/><path class="cls-20" d="M14.53,493.77h0c0,16.29,14.75,29.09,33.52,29.09H490.53c18.78,0,33.53-12.8,33.53-29.09h0c0-18.62-9.39-36.07-26.82-46.55s-26.82-27.92-26.82-46.54h0c0-71-32.18-138.47-89.84-188.51l-57.65-50v-34.9L369.86,76c4-4.66,6.7-10.48,6.7-16.3,0-14-13.41-25.6-29.5-25.6H282.7L255.88,57.41,242.47,34.13H191.52c-16.09,0-29.5,11.64-29.5,25.6,0,5.82,2.68,11.64,6.71,16.3l46.93,51.2v34.91l-57.66,50c-57.66,50-89.84,117.53-89.84,188.51,0,18.62-9.39,36.07-26.82,46.55S14.53,475.15,14.53,493.77Z"/><path class="cls-21" d="M14.53,490.28v2.33c0,16.29,14.79,29.09,33.61,29.09H491.79c16.13,0,29.58-10.48,32.27-23.28H120.73c-30.92,0-48.39-31.41-28.23-50,1.35,0,2.69-1.16,4-2.33,17.47-11.63,26.88-30.25,25.54-50-5.38-66.33,16.13-131.5,71.25-179.2l49.75-43.06h94.11l-13.45-11.64H256.52v-34.9l-47-51.2c-4-4.66-6.72-10.48-6.72-16.3a19.61,19.61,0,0,1,2.68-9.3c2.69-7-2.69-16.3-12.1-16.3-10.75,0-21.51,3.5-26.88,11.64-6.73,10.47-5.38,22.11,2.68,30.26l47.06,51.2v34.9L165.1,205.19C106,257.55,67,326.21,68.3,399.52c0,18.61-9.41,36.07-26.88,47.71C25.28,457.7,14.53,472.83,14.53,490.28Z"/><path class="cls-22" d="M328,165.06H223.22a17.89,17.89,0,0,1-17.45-17.45h0a17.9,17.9,0,0,1,17.45-17.46H328a17.9,17.9,0,0,1,17.45,17.46h0A17.89,17.89,0,0,1,328,165.06Z"/><polygon class="cls-9" points="553.03 504.13 541.71 509.77 546.77 514.64 553.03 504.13"/><polygon class="cls-23" points="541.77 531.89 546.82 514.64 541.77 509.76 491.28 524.89 497.22 537.33 541.77 531.89"/><polygon class="cls-24" points="541.77 531.89 546.82 514.64 541.77 509.76 491.28 524.89 497.22 537.33 541.77 531.89"/><polygon class="cls-25" points="572.71 487.98 553.03 504.13 546.79 514.56 541.74 531.81 572.71 487.98"/><polygon class="cls-13" points="572.74 488.03 534.98 485.36 497.22 501.68 491.28 524.86 541.76 509.73 553.05 504.17 572.74 488.03"/><polygon class="cls-26" points="500.11 517.36 488.83 509.39 488.49 503.65 498.55 494.69 500.11 517.36"/><polygon class="cls-27" points="481.43 479.75 498.55 494.69 500.11 517.36 485.17 534.49 462.5 536.02 445.37 521.09 443.82 498.42 458.77 481.3 481.43 479.75"/><polygon class="cls-5" points="500.11 517.36 485.17 534.49 462.5 536.02 445.37 521.09 455.7 510.99 481.54 503.01 500.11 517.36"/><polygon class="cls-28" points="473.62 490.69 469.08 490.86 458.77 481.3 481.43 479.75 473.62 490.69"/><polygon class="cls-29" points="455.7 510.99 445.37 521.09 443.82 498.42 455.41 506.52 455.7 510.99"/><polygon class="cls-30" points="485.17 534.49 462.5 536.02 470.51 523.9 475.97 524.14 485.17 534.49"/><polygon class="cls-4" points="473.62 490.69 488.49 503.65 488.83 509.39 475.97 524.14 470.51 523.9 455.7 510.99 455.41 506.52 469.08 490.86 473.62 490.69"/><polygon class="cls-31" points="473.11 495.45 483.66 504.66 483.91 508.73 474.77 519.21 470.9 519.04 460.37 509.86 460.19 506.7 469.89 495.58 473.11 495.45"/><polygon class="cls-1" points="448.71 520.85 475.76 531.62 498.32 528.97 484.05 513.01 457 502.24 437.04 503.49 448.71 520.85"/><path class="cls-2" d="M477.29,522.91c0-.06,0-.1,0-.17s.14-.16.17-.28c1.36-3.73,3.78-6.76,4.63-10.23l1.94.78,14.27,16-22.47,2.64A57.21,57.21,0,0,1,477.29,522.91Z"/><path class="cls-2" d="M457,502.24l1.53.6c-1.58,3.47-3.17,6.87-3.67,10.7a4.38,4.38,0,0,0-.58.41c-1.69,2.35-4,4.31-5.84,6.5l-11.4-17Z"/><polygon class="cls-3" points="448.71 520.85 475.76 531.62 498.32 528.97 476.34 530.26 449.23 519.63 437.04 503.49 448.71 520.85"/><polygon class="cls-4" points="452.45 515.26 477.13 525.1 492.28 523.7 482.75 512.47 458.07 502.65 442.92 504.05 452.45 515.26"/><polygon class="cls-4" points="498.32 528.97 501.19 548.82 477.24 550.97 475.76 531.62 498.32 528.97"/><polygon class="cls-4" points="448.71 520.85 433.83 534.59 419.18 514.08 437.04 503.49 448.71 520.85"/><polygon class="cls-5" points="475.76 531.62 477.24 550.97 433.83 534.59 448.71 520.85 475.76 531.62"/><polygon class="cls-3" points="476.85 531.18 477.24 550.97 474.45 531.09 476.85 531.18"/><polygon class="cls-3" points="448.44 519.57 433.77 534.71 450.39 521.2 448.44 519.57"/><polygon class="cls-6" points="501.19 548.82 447.21 565.28 477.24 550.97 501.19 548.82"/><polygon class="cls-7" points="477.24 550.97 447.21 565.28 433.83 534.59 477.24 550.97"/><polygon class="cls-6" points="419.18 514.08 447.21 565.28 433.83 534.59 419.18 514.08"/><path class="cls-8" d="M499,532.71l2.18,16.11-54,16.46-11.84-21.64S458.41,563.91,499,532.71Z"/><polygon class="cls-5" points="425.19 533.76 433.54 522.22 452.93 512.21 443.05 525.52 425.19 533.76"/><polygon class="cls-6" points="399.4 533.76 392.72 522.77 371.77 508.93 379.67 520.79 399.4 533.76"/><polygon class="cls-7" points="425.19 533.76 433.54 522.22 391.33 522.22 399.4 533.76 425.19 533.76"/><polygon class="cls-4" points="398.93 505.04 425.45 505.54 443.43 495.64 425.8 486.25 399.3 485.75 382.99 493.56 398.93 505.04"/><polygon class="cls-3" points="398.93 505.04 425.45 505.54 443.43 495.64 425.19 503.48 399.4 503.19 382.99 493.56 398.93 505.04"/><polygon class="cls-2" points="443.43 495.64 452.86 512.28 433.54 522.22 425.45 505.54 443.43 495.64"/><path class="cls-4" d="M443,495.85c-3.34,8.48-6.39,16.59-7.54,25.37l-1.94,1-8.09-16.68Z"/><polygon class="cls-2" points="398.93 505.04 391.33 522.22 371.77 508.93 382.99 493.56 398.93 505.04"/><path class="cls-4" d="M382,494.89l1-1.33L398.93,505l-7.6,17.18-1.63-1.1C389,512,386.14,503.48,382,494.89Z"/><polygon class="cls-5" points="425.45 505.54 433.54 522.22 391.33 522.22 398.93 505.04 425.45 505.54"/><polygon class="cls-1" points="52.48 505.19 25.43 515.96 2.87 513.31 17.14 497.34 44.19 486.58 64.15 487.83 52.48 505.19"/><path class="cls-2" d="M23.9,507.25c0-.07,0-.11,0-.17s-.13-.16-.16-.28c-1.36-3.73-3.78-6.76-4.63-10.23l-1.94.77-14.27,16L25.34,516A57.21,57.21,0,0,0,23.9,507.25Z"/><path class="cls-2" d="M44.19,486.58l-1.53.6c1.57,3.46,3.17,6.87,3.67,10.7a4.38,4.38,0,0,1,.58.41c1.69,2.35,4,4.31,5.84,6.5l11.4-17Z"/><polygon class="cls-3" points="52.48 505.19 25.43 515.96 2.87 513.31 24.85 514.6 51.96 503.96 64.15 487.83 52.48 505.19"/><polygon class="cls-4" points="48.74 499.6 24.06 509.44 8.91 508.04 18.44 496.81 43.12 486.99 58.27 488.38 48.74 499.6"/><polygon class="cls-4" points="2.87 513.31 0 533.16 23.95 535.31 25.43 515.96 2.87 513.31"/><polygon class="cls-4" points="52.48 505.19 67.36 518.93 82.01 498.41 64.15 487.83 52.48 505.19"/><polygon class="cls-5" points="25.43 515.96 23.95 535.31 67.36 518.93 52.48 505.19 25.43 515.96"/><polygon class="cls-3" points="24.34 515.52 23.95 535.31 26.74 515.43 24.34 515.52"/><polygon class="cls-3" points="52.74 503.91 67.42 519.05 50.8 505.54 52.74 503.91"/><polygon class="cls-6" points="0 533.16 53.98 549.62 23.95 535.31 0 533.16"/><polygon class="cls-7" points="23.95 535.31 53.98 549.62 67.36 518.93 23.95 535.31"/><polygon class="cls-6" points="82.01 498.41 53.98 549.62 67.36 518.93 82.01 498.41"/><path class="cls-8" d="M2.18,517.05,0,533.16l54,16.46L65.82,528S42.78,548.24,2.18,517.05Z"/><polygon class="cls-9" points="104.05 494.69 95.73 504.2 102.25 506.79 104.05 494.69"/><polygon class="cls-32" points="104.17 524.65 102.3 506.77 95.78 504.18 54.8 537.33 65.02 546.59 104.17 524.65"/><polygon class="cls-33" points="104.17 524.65 102.3 506.77 95.78 504.18 54.8 537.33 65.02 546.59 104.17 524.65"/><polygon class="cls-34" points="116.13 472.29 104.05 494.69 102.24 506.71 104.11 524.59 116.13 472.29"/><polygon class="cls-13" points="116.18 472.32 80.23 484.18 51.49 513.61 54.79 537.3 95.76 504.15 104.09 494.72 116.18 472.32"/><polygon class="cls-35" points="160.34 515.73 149.06 507.76 148.72 502.03 158.79 493.06 160.34 515.73"/><polygon class="cls-36" points="141.67 478.12 158.79 493.06 160.34 515.73 145.4 532.86 122.73 534.39 105.6 519.46 104.06 496.79 119.01 479.67 141.67 478.12"/><polygon class="cls-5" points="160.34 515.73 145.4 532.86 122.73 534.39 105.6 519.46 115.94 509.36 141.77 501.38 160.34 515.73"/><polygon class="cls-37" points="133.85 489.06 129.31 489.23 119.01 479.67 141.67 478.12 133.85 489.06"/><polygon class="cls-38" points="115.94 509.36 105.6 519.46 104.06 496.79 115.65 504.89 115.94 509.36"/><polygon class="cls-39" points="145.4 532.86 122.73 534.39 130.74 522.27 136.2 522.51 145.4 532.86"/><polygon class="cls-4" points="133.85 489.06 148.72 502.03 149.06 507.76 136.2 522.51 130.74 522.27 115.94 509.36 115.65 504.89 129.31 489.23 133.85 489.06"/><polygon class="cls-40" points="133.34 493.82 143.9 503.03 144.15 507.1 135.01 517.58 131.14 517.41 120.61 508.23 120.42 505.07 130.12 493.95 133.34 493.82"/></g></g></svg>