<svg xmlns="http://www.w3.org/2000/svg" xmlns:xlink="http://www.w3.org/1999/xlink" viewBox="0 0 200.96 85.53"><defs><style>.cls-1,.cls-16{fill:#ff83bf;}.cls-1,.cls-2,.cls-3,.cls-4,.cls-5{fill-rule:evenodd;}.cls-2{fill:url(#Áåçûìÿííûé_ãðàäèåíò_225);}.cls-3{fill:url(#Dégradé_sans_nom_14);}.cls-4{fill:url(#Dégradé_sans_nom_14-2);}.cls-12,.cls-5{fill:#c616ff;}.cls-6{fill:url(#Dégradé_sans_nom_14-3);}.cls-7{fill:url(#Dégradé_sans_nom_14-4);}.cls-8{fill:#7218ce;}.cls-9{fill:url(#Dégradé_sans_nom_14-5);}.cls-10{fill:url(#Dégradé_sans_nom_14-6);}.cls-11{fill:url(#Dégradé_sans_nom_14-7);}.cls-13{fill:url(#Dégradé_sans_nom_14-8);}.cls-14,.cls-19{fill:#d372f7;}.cls-15{fill:#9217e1;}.cls-17{fill:#2e19a6;}.cls-18{fill:#4519b3;}.cls-19{opacity:0.39;}</style><radialGradient id="Áåçûìÿííûé_ãðàäèåíò_225" cx="-2247.53" cy="777.66" r="30.98" gradientTransform="matrix(-2.04, 0, 0, 1.84, -4404.69, -1386.81)" gradientUnits="userSpaceOnUse"><stop offset="0" stop-color="#f06"/><stop offset="1" stop-color="#590048"/></radialGradient><linearGradient id="Dégradé_sans_nom_14" x1="-3006.04" y1="43.8" x2="-2950.5" y2="43.8" gradientTransform="matrix(-1, 0, 0, 1, -2830.99, 0)" gradientUnits="userSpaceOnUse"><stop offset="0.12" stop-color="#c616ff"/><stop offset="0.87" stop-color="#2e19a6"/></linearGradient><linearGradient id="Dégradé_sans_nom_14-2" x1="-3051.58" y1="17.55" x2="-2988.7" y2="40.09" xlink:href="#Dégradé_sans_nom_14"/><linearGradient id="Dégradé_sans_nom_14-3" x1="2223.35" y1="2011.11" x2="2240.81" y2="2011.11" gradientTransform="matrix(-0.66, 0.75, 0.75, 0.66, 78.26, -2977.95)" xlink:href="#Dégradé_sans_nom_14"/><linearGradient id="Dégradé_sans_nom_14-4" x1="2228.23" y1="1974.94" x2="2273.31" y2="2010.16" gradientTransform="matrix(-0.66, 0.75, 0.75, 0.66, 78.26, -2977.95)" xlink:href="#Dégradé_sans_nom_14"/><linearGradient id="Dégradé_sans_nom_14-5" x1="-2928.77" y1="-15.19" x2="-2930.39" y2="31.73" xlink:href="#Dégradé_sans_nom_14"/><linearGradient id="Dégradé_sans_nom_14-6" x1="-2889.55" y1="30.26" x2="-2919.21" y2="29.73" xlink:href="#Dégradé_sans_nom_14"/><linearGradient id="Dégradé_sans_nom_14-7" x1="-2934.73" y1="68.94" x2="-2930.96" y2="38.73" xlink:href="#Dégradé_sans_nom_14"/><linearGradient id="Dégradé_sans_nom_14-8" x1="-2923.25" y1="35.47" x2="-2942.12" y2="17.67" xlink:href="#Dégradé_sans_nom_14"/></defs><g id="Calque_2" data-name="Calque 2"><g id="Calque_1-2" data-name="Calque 1"><polygon class="cls-1" points="181.26 24.38 169.94 30.02 175 34.89 181.26 24.38"/><polygon class="cls-2" points="170 52.14 175.05 34.89 170 30.02 119.51 45.14 125.45 57.58 170 52.14"/><polygon class="cls-3" points="170 52.14 175.05 34.89 170 30.02 119.51 45.14 125.45 57.58 170 52.14"/><polygon class="cls-4" points="200.94 8.23 181.26 24.38 175.02 34.81 169.97 52.06 200.94 8.23"/><polygon class="cls-5" points="200.97 8.28 163.21 5.61 125.45 21.93 119.51 45.11 169.99 29.98 181.28 24.42 200.97 8.28"/><polygon class="cls-6" points="128.34 37.61 117.06 29.64 116.72 23.91 126.78 14.94 128.34 37.61"/><polygon class="cls-7" points="109.66 0 126.78 14.94 128.34 37.61 113.4 54.74 90.73 56.27 73.6 41.34 72.05 18.67 87 1.55 109.66 0"/><polygon class="cls-8" points="128.34 37.61 113.4 54.74 90.73 56.27 73.6 41.34 83.93 31.24 109.77 23.26 128.34 37.61"/><polygon class="cls-9" points="101.85 10.94 97.31 11.11 87 1.55 109.66 0 101.85 10.94"/><polygon class="cls-10" points="83.93 31.24 73.6 41.34 72.05 18.67 83.64 26.77 83.93 31.24"/><polygon class="cls-11" points="113.4 54.74 90.73 56.27 98.74 44.15 104.2 44.39 113.4 54.74"/><polygon class="cls-12" points="101.85 10.94 116.72 23.91 117.06 29.64 104.2 44.39 98.74 44.15 83.93 31.24 83.64 26.77 97.31 11.11 101.85 10.94"/><polygon class="cls-13" points="101.34 15.7 111.89 24.91 112.14 28.98 103 39.46 99.13 39.29 88.6 30.11 88.42 26.95 98.12 15.83 101.34 15.7"/><polygon class="cls-14" points="76.94 41.1 103.99 51.87 126.55 49.22 112.28 33.26 85.23 22.49 65.27 23.74 76.94 41.1"/><path class="cls-15" d="M105.52,43.16c0-.06,0-.1,0-.17s.14-.16.17-.28c1.36-3.72,3.78-6.76,4.63-10.23l1.94.78,14.27,16-22.47,2.64A57.21,57.21,0,0,1,105.52,43.16Z"/><path class="cls-15" d="M85.23,22.49l1.53.6c-1.58,3.47-3.17,6.87-3.67,10.7a4.38,4.38,0,0,0-.58.41c-1.69,2.35-4,4.31-5.84,6.5l-11.4-17Z"/><polygon class="cls-16" points="76.94 41.1 103.99 51.87 126.55 49.22 104.57 50.52 77.46 39.88 65.27 23.74 76.94 41.1"/><polygon class="cls-12" points="80.68 35.51 105.36 45.35 120.51 43.95 110.98 32.72 86.3 22.9 71.15 24.3 80.68 35.51"/><polygon class="cls-12" points="126.55 49.22 129.42 69.07 105.47 71.22 103.99 51.87 126.55 49.22"/><polygon class="cls-12" points="76.94 41.1 62.06 54.84 47.41 34.33 65.27 23.74 76.94 41.1"/><polygon class="cls-8" points="103.99 51.87 105.47 71.22 62.06 54.84 76.94 41.1 103.99 51.87"/><polygon class="cls-16" points="105.08 51.44 105.47 71.22 102.68 51.34 105.08 51.44"/><polygon class="cls-16" points="76.67 39.82 62 54.96 78.62 41.45 76.67 39.82"/><polygon class="cls-17" points="129.42 69.07 75.44 85.53 105.47 71.22 129.42 69.07"/><polygon class="cls-18" points="105.47 71.22 75.44 85.53 62.06 54.84 105.47 71.22"/><polygon class="cls-17" points="47.41 34.33 75.44 85.53 62.06 54.84 47.41 34.33"/><path class="cls-19" d="M127.24,53l2.18,16.11-54,16.46L63.6,63.9S86.64,84.16,127.24,53Z"/><polygon class="cls-8" points="53.42 54.01 61.77 42.47 81.16 32.46 71.28 45.77 53.42 54.01"/><polygon class="cls-17" points="27.63 54.01 20.95 43.02 0 29.18 7.9 41.04 27.63 54.01"/><polygon class="cls-18" points="53.42 54.01 61.77 42.47 19.56 42.47 27.63 54.01 53.42 54.01"/><polygon class="cls-12" points="27.16 25.29 53.68 25.79 71.66 15.89 54.03 6.5 27.52 6 11.21 13.81 27.16 25.29"/><polygon class="cls-16" points="27.16 25.29 53.68 25.79 71.66 15.89 53.42 23.73 27.63 23.44 11.21 13.81 27.16 25.29"/><polygon class="cls-15" points="71.66 15.89 81.09 32.53 61.77 42.47 53.68 25.79 71.66 15.89"/><path class="cls-12" d="M71.25,16.1c-3.34,8.48-6.39,16.6-7.54,25.37l-1.94,1L53.68,25.79Z"/><polygon class="cls-15" points="27.16 25.29 19.56 42.47 0 29.18 11.21 13.81 27.16 25.29"/><path class="cls-12" d="M10.24,15.14l1-1.33,16,11.48-7.6,17.18-1.63-1.1C17.21,32.27,14.37,23.73,10.24,15.14Z"/><polygon class="cls-8" points="53.68 25.79 61.77 42.47 19.56 42.47 27.16 25.29 53.68 25.79"/></g></g></svg>