<svg xmlns="http://www.w3.org/2000/svg" xmlns:xlink="http://www.w3.org/1999/xlink" viewBox="0 0 1860.96 1861.06"><defs><style>.cls-1{fill:#5fb1e0;}.cls-2{fill:url(#Dégradé_sans_nom_13);}.cls-3{fill:url(#Dégradé_sans_nom_13-2);}.cls-4{fill:url(#Dégradé_sans_nom_13-3);}.cls-5{fill:url(#Dégradé_sans_nom_13-4);}.cls-6{fill:url(#Dégradé_sans_nom_13-5);}.cls-7{fill:url(#Dégradé_sans_nom_13-6);}</style><linearGradient id="Dégradé_sans_nom_13" x1="2.32" y1="221.62" x2="1834.97" y2="216.99" gradientUnits="userSpaceOnUse"><stop offset="0" stop-color="#0ceddc"/><stop offset="0.1" stop-color="#13e5dd"/><stop offset="0.25" stop-color="#25d0e1"/><stop offset="0.43" stop-color="#43aee6"/><stop offset="0.63" stop-color="#6c7eee"/><stop offset="0.86" stop-color="#a141f8"/><stop offset="1" stop-color="#c616ff"/></linearGradient><linearGradient id="Dégradé_sans_nom_13-2" x1="5.17" y1="934.73" x2="1835.34" y2="930.1" gradientTransform="translate(2596.47 -735.41) rotate(90)" xlink:href="#Dégradé_sans_nom_13"/><linearGradient id="Dégradé_sans_nom_13-3" x1="5.58" y1="931.01" x2="1835.75" y2="926.38" gradientTransform="translate(1125 736.06) rotate(90)" xlink:href="#Dégradé_sans_nom_13"/><linearGradient id="Dégradé_sans_nom_13-4" x1="6" y1="1676.41" x2="1838.65" y2="1671.78" xlink:href="#Dégradé_sans_nom_13"/><linearGradient id="Dégradé_sans_nom_13-5" x1="5.64" y1="932.87" x2="1835.28" y2="928.25" xlink:href="#Dégradé_sans_nom_13"/><linearGradient id="Dégradé_sans_nom_13-6" x1="5.6" y1="918.43" x2="1835.25" y2="913.81" xlink:href="#Dégradé_sans_nom_13"/></defs><g id="Calque_2" data-name="Calque 2"><g id="Calque_1-2" data-name="Calque 1"><path class="cls-1" d="M940.47,1196.48c-21.61,0-44.61-1-68.72-2-14.31-.63-29.12-1.28-44.14-1.7-17.34-.93-30.9-16-30.77-34.11V704.52c0-17.24,12.32-31.76,28.67-33.91,88.57-11.5,153.08-6.54,197.41,14.86,38.39,18.66,62.1,50.55,70.47,94.75,9,47.67-2.78,94.52-33.27,134.34,42.21,33.75,60.33,73.55,61,131.8v1.47c-3.37,71.32-30.52,115.56-83,135.29C1010.26,1193.57,977.37,1196.48,940.47,1196.48Zm-98.71-50.38c10.81.36,21.4.82,31.71,1.28,136.58,5.88,197.37,4,202.65-101.12-.78-51.26-16.53-78.41-62-107.1l-25.31-16,21.43-21.27c32.77-32.41,46.42-72.3,39-112.39-8.44-44.66-39.83-93-207.31-73.35Z"/><rect class="cls-2" x="902.01" y="52.81" width="56.95" height="332.94" rx="6.69"/><rect class="cls-3" x="1637.46" y="764.06" width="56.95" height="332.94" rx="6.69" transform="translate(735.41 2596.47) rotate(-90)"/><rect class="cls-4" x="166" y="764.06" width="56.95" height="332.94" rx="6.69" transform="translate(-736.06 1125) rotate(-90)"/><rect class="cls-5" x="902.01" y="1507.6" width="56.95" height="332.94" rx="6.69"/><path class="cls-6" d="M1440.14,837.19h0a28.58,28.58,0,0,0,0,40.42l23,23a42.32,42.32,0,0,1,0,59.86L960.4,1463.18a42.37,42.37,0,0,1-59.85,0L397.83,960.46a42.36,42.36,0,0,1,0-59.86L900.55,397.88a42.36,42.36,0,0,1,59.85,0l399.05,399a28.57,28.57,0,0,0,40.42,0h0a28.58,28.58,0,0,0,0-40.42l-399-399a99.61,99.61,0,0,0-140.69,0L357.41,860.18a99.6,99.6,0,0,0,0,140.7L860.13,1503.6a99.6,99.6,0,0,0,140.69,0l502.73-502.72a99.6,99.6,0,0,0,0-140.7l-23-23A28.58,28.58,0,0,0,1440.14,837.19Z"/><path class="cls-7" d="M74.62,962.66a45.5,45.5,0,0,1,0-64.26l653.05-653a30.68,30.68,0,0,0,0-43.39h0a30.7,30.7,0,0,0-43.4,0l-653,653a106.93,106.93,0,0,0,0,151L656,1630.82c11.88,11.88,31.4,13.08,43.63,1.56a30.68,30.68,0,0,0,.68-44.05Z"/><path class="cls-6" d="M1829.73,855,1006,31.28a106.8,106.8,0,0,0-151,0l-87,87a30.68,30.68,0,0,0,0,43.39h0a30.7,30.7,0,0,0,43.4,0l87-87a45.44,45.44,0,0,1,64.26,0L1786.34,898.4a45.5,45.5,0,0,1,0,64.26L962.61,1786.39a45.44,45.44,0,0,1-64.26,0L784,1672a30.7,30.7,0,0,0-43.4,0h0a30.7,30.7,0,0,0,0,43.4L855,1829.78A106.19,106.19,0,0,0,934,1861c27.82-.9,54-13.31,73.72-33l822-822h0A106.93,106.93,0,0,0,1829.73,855Z"/></g></g></svg>