<svg xmlns="http://www.w3.org/2000/svg" xmlns:xlink="http://www.w3.org/1999/xlink" viewBox="0 0 1860.96 2647.73"><defs><style>.cls-1{fill:#5fb1e0;}.cls-2{fill:url(#Dégradé_sans_nom_13);}.cls-3{fill:url(#Dégradé_sans_nom_13-2);}.cls-4{fill:url(#Dégradé_sans_nom_13-3);}.cls-5{fill:url(#Dégradé_sans_nom_13-4);}.cls-6{fill:url(#Dégradé_sans_nom_13-5);}.cls-7{fill:url(#Dégradé_sans_nom_13-6);}</style><linearGradient id="Dégradé_sans_nom_13" x1="2.32" y1="221.62" x2="1834.97" y2="216.99" gradientUnits="userSpaceOnUse"><stop offset="0" stop-color="#0ceddc"/><stop offset="0.1" stop-color="#13e5dd"/><stop offset="0.25" stop-color="#25d0e1"/><stop offset="0.43" stop-color="#43aee6"/><stop offset="0.63" stop-color="#6c7eee"/><stop offset="0.86" stop-color="#a141f8"/><stop offset="1" stop-color="#c616ff"/></linearGradient><linearGradient id="Dégradé_sans_nom_13-2" x1="5.17" y1="934.73" x2="1835.34" y2="930.1" gradientTransform="translate(2596.47 -735.41) rotate(90)" xlink:href="#Dégradé_sans_nom_13"/><linearGradient id="Dégradé_sans_nom_13-3" x1="5.58" y1="931.01" x2="1835.75" y2="926.38" gradientTransform="translate(1125 736.06) rotate(90)" xlink:href="#Dégradé_sans_nom_13"/><linearGradient id="Dégradé_sans_nom_13-4" x1="6" y1="1676.41" x2="1838.65" y2="1671.78" xlink:href="#Dégradé_sans_nom_13"/><linearGradient id="Dégradé_sans_nom_13-5" x1="5.64" y1="932.87" x2="1835.28" y2="928.25" xlink:href="#Dégradé_sans_nom_13"/><linearGradient id="Dégradé_sans_nom_13-6" x1="5.6" y1="918.43" x2="1835.25" y2="913.81" xlink:href="#Dégradé_sans_nom_13"/></defs><g id="Calque_2" data-name="Calque 2"><g id="Calque_1-2" data-name="Calque 1"><path class="cls-1" d="M473.91,2381.75c-18.74,0-38.43-.85-59.36-1.73-12.49-.55-25-1.08-38-1.47-14.94-.8-26.62-13.77-26.5-29.4V1958.24c0-14.86,10.61-27.38,24.72-29.18,76.25-9.8,131.86-5.75,170,12.78,33,16,53.45,43.51,60.67,81.67,7.74,41.07-2.38,81.39-28.65,115.69,36.49,28.88,52,63.16,52.67,113.34v1.24c-2.91,61.42-26.27,99.52-71.48,116.5C534.11,2379.14,505.71,2381.75,473.91,2381.75Zm-85-43.39c9.37.33,18.4.72,27.3,1.12,117.62,5.06,169.94,3.46,174.47-87.1-.65-44.14-14.21-67.47-53.42-92.2l-21.86-13.76,18.43-18.33c28.11-27.86,40-62.07,33.49-96.77-7.28-38.45-34.37-80-178.51-63.15Z"/><path class="cls-1" d="M692.12,2343.2q-30.37-32.14-30.34-90.5a157.53,157.53,0,0,1,11.5-60.67,102.47,102.47,0,0,1,35.43-44.86q24-17.11,58.88-17.12a99.8,99.8,0,0,1,56.67,16,101.75,101.75,0,0,1,36.33,42.47,136.14,136.14,0,0,1,12.5,58.09c.32,11.18-8.08,20.52-18.77,20.86-.53,0-1.07,0-1.6,0H702.52q3.53,32.43,23,50.47T780,2336a120.2,120.2,0,0,0,59.8-14.37,17.87,17.87,0,0,1,20.37,3.26,17.24,17.24,0,0,1,5.31,13.07q0,10.2-11.53,17.15a133.12,133.12,0,0,1-77.48,20.36Q722.46,2375.45,692.12,2343.2Zm141-110a76.72,76.72,0,0,0-11.27-38,61.73,61.73,0,0,0-24.59-22.45,64.81,64.81,0,0,0-59.35,0,60.28,60.28,0,0,0-24.37,22.45,77.9,77.9,0,0,0-11.06,38Z"/><path class="cls-1" d="M939.38,2314.35V2170.8H908a8.5,8.5,0,0,1-8.4-8.6V2162a10,10,0,0,1,4-7.88l60.23-61.58a11,11,0,0,1,7.52-4.18,7.62,7.62,0,0,1,6,2.77,9.62,9.62,0,0,1,2.44,6.54v37h50c9.17-.36,16.89,7.11,17.25,16.7,0,.46,0,.92,0,1.37a18.38,18.38,0,0,1-4.85,12.74,16,16,0,0,1-12.49,5.33h-50v139.7q0,18.1,8.19,22.87a40,40,0,0,0,20.59,4.87,59.62,59.62,0,0,0,17.71-2.78l3.78-.95a24.16,24.16,0,0,1,5.09-.45A15.28,15.28,0,0,1,1046,2339a16.05,16.05,0,0,1,4.87,11.8,17.51,17.51,0,0,1-10.18,16.33,83.39,83.39,0,0,1-36.74,8.33Q939.38,2375.46,939.38,2314.35Z"/><path class="cls-1" d="M1095.92,2254.37a18.3,18.3,0,0,1-5.09-13.07,19.16,19.16,0,0,1,5.09-13.43,16.41,16.41,0,0,1,12.5-5.55h83.69c10,0,18.13,8.45,18.15,18.91v.07a17.85,17.85,0,0,1-5.31,13.07,17.37,17.37,0,0,1-12.84,5.32h-83.6A16.65,16.65,0,0,1,1095.92,2254.37Z"/><path class="cls-1" d="M1279,2079.58a23.45,23.45,0,0,1-6.65-16.66v-1.87c.07-13,10.14-23.55,22.59-23.62h2.65c12.46.06,22.54,10.6,22.59,23.62v1.87c0,13-10.13,23.57-22.59,23.58h-2.65A21.39,21.39,0,0,1,1279,2079.58Zm2.66,287.5a20.57,20.57,0,0,1-5.75-14.8V2153.71a21.37,21.37,0,0,1,5.75-15,18.34,18.34,0,0,1,14.18-6.24c10.88-.38,20,8.53,20.37,19.91,0,.45,0,.9,0,1.36v198.67a20,20,0,0,1-6,14.8,19.48,19.48,0,0,1-14.37,6.05,18.88,18.88,0,0,1-14.18-6.11Z"/><path class="cls-1" d="M1399.44,2314.35V2170.8H1368a8.5,8.5,0,0,1-8.44-8.56V2162a10,10,0,0,1,4-7.88l60.23-61.58a11,11,0,0,1,7.5-4.18,7.63,7.63,0,0,1,6,2.77,9.61,9.61,0,0,1,2.43,6.54v37h50c9.2-.35,16.94,7.18,17.27,16.81q0,.63,0,1.26a18.21,18.21,0,0,1-4.87,12.74,16,16,0,0,1-12.5,5.33h-50v139.7q0,18.1,8.18,22.87a39.84,39.84,0,0,0,20.59,4.87,59.57,59.57,0,0,0,17.71-2.78l3.75-.95a24.22,24.22,0,0,1,5.09-.45A15.25,15.25,0,0,1,1506,2339a16.1,16.1,0,0,1,4.88,11.8,17.52,17.52,0,0,1-10.19,16.33,83.46,83.46,0,0,1-36.77,8.33Q1399.45,2375.46,1399.44,2314.35Z"/><path class="cls-1" d="M669.06,2536.87v19.61H623.45V2626h56v19.8H602.62V2450.36h76.85v19.83h-56v66.68Z"/><path class="cls-1" d="M697.87,2538.28h51v19.6h-51Z"/><path class="cls-1" d="M850.22,2497.24v5.33H830.48V2496c0-17.58-6.41-27.91-21.34-27.91s-21.34,10.33-21.34,27.64c0,43.82,62.7,48,62.7,102.95,0,29.6-13.62,49-42.14,49s-41.89-19.25-41.89-49v-11.14h19.46v12.28c0,17.58,6.94,27.9,21.87,27.9s21.87-10.32,21.87-27.9c0-43.55-62.48-47.73-62.48-102.71,0-30.13,13.34-48.81,41.36-48.81S850.22,2467.68,850.22,2497.24Z"/><path class="cls-1" d="M909.48,2450.36c29.34,0,41.9,18.17,41.9,47.73v23.43c0,31-13.91,47.18-43.52,47.18h-18.4v77H868.65V2450.36ZM907.86,2549c15.62,0,23-7.55,23-26.14V2497c0-17.87-6.25-26.79-21.34-26.79h-20V2549Z"/><path class="cls-1" d="M966,2497.54c0-29.86,14.15-49,42.7-49s43,19.24,43,49v101c0,29.56-14.16,49-43,49s-42.7-19.6-42.7-49Zm20.55,102.13c0,17.87,7.19,28.19,22.15,28.19s22.09-10.22,22.09-28.19V2496.43c0-17.58-6.94-28.2-22.15-28.2s-22.15,10.62-22.15,28.2Z"/><path class="cls-1" d="M1113,2450.36c29.37,0,41.64,15.65,41.64,44.66v15.91c0,21.5-7.21,34.86-23.21,40.19,17.06,5.29,23.46,19.8,23.46,40.74v30.42c0,8.65.28,16.72,3.75,23.42h-21.09c-2.4-5.59-3.46-10.58-3.46-23.72V2591.3c0-22.05-9.87-29-27.21-29h-14.69v83.44h-20.8V2450.36Zm-5.31,92.13c16.53,0,26.4-5.58,26.4-26.79V2497c0-17.58-6.25-26.79-21.62-26.79h-20.28v72.26Z"/><path class="cls-1" d="M1203.51,2645.7V2470.19h-34.36v-19.83h89.37v19.83h-34.36V2645.7Z"/><path class="cls-1" d="M940.47,1196.48c-21.61,0-44.61-1-68.72-2-14.31-.63-29.12-1.28-44.14-1.7-17.34-.93-30.9-16-30.77-34.11V704.52c0-17.24,12.32-31.76,28.67-33.91,88.57-11.5,153.08-6.54,197.41,14.86,38.39,18.66,62.1,50.55,70.47,94.75,9,47.67-2.78,94.52-33.27,134.34,42.21,33.75,60.33,73.55,61,131.8v1.47c-3.37,71.32-30.52,115.56-83,135.29C1010.26,1193.57,977.37,1196.48,940.47,1196.48Zm-98.71-50.38c10.81.36,21.4.82,31.71,1.28,136.58,5.88,197.37,4,202.65-101.12-.78-51.26-16.53-78.41-62-107.1l-25.31-16,21.43-21.27c32.77-32.41,46.42-72.3,39-112.39-8.44-44.66-39.83-93-207.31-73.35Z"/><rect class="cls-2" x="902.01" y="52.81" width="56.95" height="332.94" rx="6.69"/><rect class="cls-3" x="1637.46" y="764.06" width="56.95" height="332.94" rx="6.69" transform="translate(735.41 2596.47) rotate(-90)"/><rect class="cls-4" x="166" y="764.06" width="56.95" height="332.94" rx="6.69" transform="translate(-736.06 1125) rotate(-90)"/><rect class="cls-5" x="902.01" y="1507.6" width="56.95" height="332.94" rx="6.69"/><path class="cls-6" d="M1440.14,837.19h0a28.58,28.58,0,0,0,0,40.42l23,23a42.32,42.32,0,0,1,0,59.86L960.4,1463.18a42.37,42.37,0,0,1-59.85,0L397.83,960.46a42.36,42.36,0,0,1,0-59.86L900.55,397.88a42.36,42.36,0,0,1,59.85,0l399.05,399a28.57,28.57,0,0,0,40.42,0h0a28.58,28.58,0,0,0,0-40.42l-399-399a99.61,99.61,0,0,0-140.69,0L357.41,860.18a99.6,99.6,0,0,0,0,140.7L860.13,1503.6a99.6,99.6,0,0,0,140.69,0l502.73-502.72a99.6,99.6,0,0,0,0-140.7l-23-23A28.58,28.58,0,0,0,1440.14,837.19Z"/><path class="cls-7" d="M74.62,962.66a45.5,45.5,0,0,1,0-64.26l653.05-653a30.68,30.68,0,0,0,0-43.39h0a30.7,30.7,0,0,0-43.4,0l-653,653a106.93,106.93,0,0,0,0,151L656,1630.82c11.88,11.88,31.4,13.08,43.63,1.56a30.68,30.68,0,0,0,.68-44.05Z"/><path class="cls-6" d="M1829.73,855,1006,31.28a106.8,106.8,0,0,0-151,0l-87,87a30.68,30.68,0,0,0,0,43.39h0a30.7,30.7,0,0,0,43.4,0l87-87a45.44,45.44,0,0,1,64.26,0L1786.34,898.4a45.5,45.5,0,0,1,0,64.26L962.61,1786.39a45.44,45.44,0,0,1-64.26,0L784,1672a30.7,30.7,0,0,0-43.4,0h0a30.7,30.7,0,0,0,0,43.4L855,1829.78A106.19,106.19,0,0,0,934,1861c27.82-.9,54-13.31,73.72-33l822-822h0A106.93,106.93,0,0,0,1829.73,855Z"/></g></g></svg>