<svg xmlns="http://www.w3.org/2000/svg" xmlns:xlink="http://www.w3.org/1999/xlink" viewBox="0 0 554.74 479.49"><defs><style>.cls-1{fill:#563202;}.cls-2{fill:#875206;}.cls-3{fill:#f0c419;}.cls-4{fill:#7218ce;}.cls-21,.cls-5{fill:#2e19a6;}.cls-6{fill:#4519b3;}.cls-14,.cls-7{fill:#c616ff;}.cls-10,.cls-8{fill:#ff83bf;}.cls-9{fill:#9217e1;}.cls-10,.cls-11,.cls-12,.cls-13,.cls-14,.cls-21,.cls-22,.cls-23,.cls-24,.cls-34,.cls-35,.cls-36,.cls-43,.cls-44,.cls-51,.cls-52,.cls-53{fill-rule:evenodd;}.cls-11{fill:url(#Áåçûìÿííûé_ãðàäèåíò_225);}.cls-12{fill:url(#Dégradé_sans_nom_14);}.cls-13{fill:url(#Dégradé_sans_nom_14-2);}.cls-15{fill:url(#Dégradé_sans_nom_14-3);}.cls-16{fill:url(#Dégradé_sans_nom_14-4);}.cls-17{fill:url(#Dégradé_sans_nom_14-5);}.cls-18{fill:url(#Dégradé_sans_nom_14-6);}.cls-19{fill:url(#Dégradé_sans_nom_14-7);}.cls-20{fill:url(#Dégradé_sans_nom_14-8);}.cls-22,.cls-25,.cls-26{fill:#d372f7;}.cls-23{fill:url(#Dégradé_sans_nom_14-9);}.cls-24{fill:url(#Dégradé_sans_nom_14-10);}.cls-26{opacity:0.39;}.cls-27{fill:url(#Dégradé_sans_nom_14-11);}.cls-28{fill:url(#Dégradé_sans_nom_14-12);}.cls-29{fill:url(#Dégradé_sans_nom_14-13);}.cls-30{fill:url(#Dégradé_sans_nom_14-14);}.cls-31{fill:url(#Dégradé_sans_nom_14-15);}.cls-32{fill:url(#Dégradé_sans_nom_14-16);}.cls-33{fill:#ffc000;}.cls-34{fill:url(#Áåçûìÿííûé_ãðàäèåíò_225-2);}.cls-35{fill:url(#Dégradé_sans_nom_14-17);}.cls-36{fill:url(#Dégradé_sans_nom_14-18);}.cls-37{fill:url(#Dégradé_sans_nom_14-19);}.cls-38{fill:url(#Dégradé_sans_nom_14-20);}.cls-39{fill:url(#Dégradé_sans_nom_14-21);}.cls-40{fill:url(#Dégradé_sans_nom_14-22);}.cls-41{fill:url(#Dégradé_sans_nom_14-23);}.cls-42{fill:url(#Dégradé_sans_nom_14-24);}.cls-43{fill:url(#Dégradé_sans_nom_14-25);}.cls-44{fill:url(#Dégradé_sans_nom_14-26);}.cls-45{fill:url(#Dégradé_sans_nom_14-27);}.cls-46{fill:url(#Dégradé_sans_nom_14-28);}.cls-47{fill:url(#Dégradé_sans_nom_14-29);}.cls-48{fill:url(#Dégradé_sans_nom_14-30);}.cls-49{fill:url(#Dégradé_sans_nom_14-31);}.cls-50{fill:url(#Dégradé_sans_nom_14-32);}.cls-51{fill:url(#Áåçûìÿííûé_ãðàäèåíò_225-3);}.cls-52{fill:url(#Dégradé_sans_nom_14-33);}.cls-53{fill:url(#Dégradé_sans_nom_14-34);}</style><radialGradient id="Áåçûìÿííûé_ãðàäèåíò_225" cx="-1079.48" cy="839.62" r="35.39" gradientTransform="translate(2233.17 -1356.62) scale(2.04 1.84)" gradientUnits="userSpaceOnUse"><stop offset="0" stop-color="#f06"/><stop offset="1" stop-color="#590048"/></radialGradient><linearGradient id="Dégradé_sans_nom_14" x1="29.6" y1="188.08" x2="93.05" y2="188.08" gradientUnits="userSpaceOnUse"><stop offset="0.12" stop-color="#c616ff"/><stop offset="0.87" stop-color="#2e19a6"/></linearGradient><linearGradient id="Dégradé_sans_nom_14-2" x1="-22.42" y1="158.09" x2="49.42" y2="183.84" xlink:href="#Dégradé_sans_nom_14"/><linearGradient id="Dégradé_sans_nom_14-3" x1="4149.23" y1="-690.5" x2="4169.18" y2="-690.5" gradientTransform="matrix(0.66, 0.75, -0.75, 0.66, -3154.71, -2510.14)" xlink:href="#Dégradé_sans_nom_14"/><linearGradient id="Dégradé_sans_nom_14-4" x1="4154.8" y1="-731.81" x2="4206.3" y2="-691.57" gradientTransform="matrix(0.66, 0.75, -0.75, 0.66, -3154.71, -2510.14)" xlink:href="#Dégradé_sans_nom_14"/><linearGradient id="Dégradé_sans_nom_14-5" x1="132.68" y1="122.96" x2="130.83" y2="176.57" xlink:href="#Dégradé_sans_nom_14"/><linearGradient id="Dégradé_sans_nom_14-6" x1="177.49" y1="174.89" x2="143.6" y2="174.28" xlink:href="#Dégradé_sans_nom_14"/><linearGradient id="Dégradé_sans_nom_14-7" x1="125.87" y1="219.07" x2="130.18" y2="184.57" xlink:href="#Dégradé_sans_nom_14"/><linearGradient id="Dégradé_sans_nom_14-8" x1="138.99" y1="180.84" x2="117.42" y2="160.5" xlink:href="#Dégradé_sans_nom_14"/><linearGradient id="Dégradé_sans_nom_14-9" x1="252.59" y1="179.82" x2="261.37" y2="144.7" xlink:href="#Dégradé_sans_nom_14"/><linearGradient id="Dégradé_sans_nom_14-10" x1="261.31" y1="198.2" x2="231.27" y2="154.3" xlink:href="#Dégradé_sans_nom_14"/><linearGradient id="Dégradé_sans_nom_14-11" x1="4276.16" y1="-840.08" x2="4296.11" y2="-840.08" gradientTransform="matrix(0.66, 0.75, -0.75, 0.66, -3154.71, -2510.14)" xlink:href="#Dégradé_sans_nom_14"/><linearGradient id="Dégradé_sans_nom_14-12" x1="4281.73" y1="-881.39" x2="4333.23" y2="-841.16" gradientTransform="matrix(0.66, 0.75, -0.75, 0.66, -3154.71, -2510.14)" xlink:href="#Dégradé_sans_nom_14"/><linearGradient id="Dégradé_sans_nom_14-13" x1="328.85" y1="120.28" x2="327" y2="173.88" xlink:href="#Dégradé_sans_nom_14"/><linearGradient id="Dégradé_sans_nom_14-14" x1="373.66" y1="172.21" x2="339.77" y2="171.59" xlink:href="#Dégradé_sans_nom_14"/><linearGradient id="Dégradé_sans_nom_14-15" x1="322.04" y1="216.39" x2="326.35" y2="181.88" xlink:href="#Dégradé_sans_nom_14"/><linearGradient id="Dégradé_sans_nom_14-16" x1="335.16" y1="178.15" x2="313.59" y2="157.82" xlink:href="#Dégradé_sans_nom_14"/><radialGradient id="Áåçûìÿííûé_ãðàäèåíò_225-2" cx="-3371.62" cy="981.38" r="30.98" gradientTransform="matrix(-2.04, 0, 0, 1.84, -6338.46, -1356.62)" xlink:href="#Áåçûìÿííûé_ãðàäèåíò_225"/><linearGradient id="Dégradé_sans_nom_14-17" x1="-4634.12" y1="448.33" x2="-4578.58" y2="448.33" gradientTransform="matrix(-1, 0, 0, 1, -4105.29, 0)" xlink:href="#Dégradé_sans_nom_14"/><linearGradient id="Dégradé_sans_nom_14-18" x1="-4679.66" y1="422.08" x2="-4616.78" y2="444.62" gradientTransform="matrix(-1, 0, 0, 1, -4105.29, 0)" xlink:href="#Dégradé_sans_nom_14"/><linearGradient id="Dégradé_sans_nom_14-19" x1="1276.82" y1="3002.92" x2="1294.29" y2="3002.92" gradientTransform="matrix(-0.66, 0.75, 0.75, 0.66, -950.59, -2510.14)" xlink:href="#Dégradé_sans_nom_14"/><linearGradient id="Dégradé_sans_nom_14-20" x1="1281.7" y1="2966.75" x2="1326.78" y2="3001.97" gradientTransform="matrix(-0.66, 0.75, 0.75, 0.66, -950.59, -2510.14)" xlink:href="#Dégradé_sans_nom_14"/><linearGradient id="Dégradé_sans_nom_14-21" x1="-4543.9" y1="391.33" x2="-4545.52" y2="438.25" gradientTransform="matrix(-1, 0, 0, 1, -4105.29, 0)" xlink:href="#Dégradé_sans_nom_14"/><linearGradient id="Dégradé_sans_nom_14-22" x1="-4504.67" y1="436.79" x2="-4534.34" y2="436.25" gradientTransform="matrix(-1, 0, 0, 1, -4105.29, 0)" xlink:href="#Dégradé_sans_nom_14"/><linearGradient id="Dégradé_sans_nom_14-23" x1="-4549.86" y1="475.46" x2="-4546.08" y2="445.26" gradientTransform="matrix(-1, 0, 0, 1, -4105.29, 0)" xlink:href="#Dégradé_sans_nom_14"/><linearGradient id="Dégradé_sans_nom_14-24" x1="-4538.38" y1="441.99" x2="-4557.25" y2="424.19" gradientTransform="matrix(-1, 0, 0, 1, -4105.29, 0)" xlink:href="#Dégradé_sans_nom_14"/><linearGradient id="Dégradé_sans_nom_14-25" x1="-4438.93" y1="441.1" x2="-4431.25" y2="410.36" gradientTransform="matrix(-1, 0, 0, 1, -4105.29, 0)" xlink:href="#Dégradé_sans_nom_14"/><linearGradient id="Dégradé_sans_nom_14-26" x1="-4431.3" y1="457.19" x2="-4457.6" y2="418.76" gradientTransform="matrix(-1, 0, 0, 1, -4105.29, 0)" xlink:href="#Dégradé_sans_nom_14"/><linearGradient id="Dégradé_sans_nom_14-27" x1="1387.93" y1="2871.98" x2="1405.4" y2="2871.98" gradientTransform="matrix(-0.66, 0.75, 0.75, 0.66, -950.59, -2510.14)" xlink:href="#Dégradé_sans_nom_14"/><linearGradient id="Dégradé_sans_nom_14-28" x1="1392.81" y1="2835.82" x2="1437.89" y2="2871.04" gradientTransform="matrix(-0.66, 0.75, 0.75, 0.66, -950.59, -2510.14)" xlink:href="#Dégradé_sans_nom_14"/><linearGradient id="Dégradé_sans_nom_14-29" x1="-4372.19" y1="388.98" x2="-4373.8" y2="435.91" gradientTransform="matrix(-1, 0, 0, 1, -4105.29, 0)" xlink:href="#Dégradé_sans_nom_14"/><linearGradient id="Dégradé_sans_nom_14-30" x1="-4332.96" y1="434.44" x2="-4362.62" y2="433.9" gradientTransform="matrix(-1, 0, 0, 1, -4105.29, 0)" xlink:href="#Dégradé_sans_nom_14"/><linearGradient id="Dégradé_sans_nom_14-31" x1="-4378.14" y1="473.11" x2="-4374.37" y2="442.91" gradientTransform="matrix(-1, 0, 0, 1, -4105.29, 0)" xlink:href="#Dégradé_sans_nom_14"/><linearGradient id="Dégradé_sans_nom_14-32" x1="-4366.66" y1="439.64" x2="-4385.54" y2="421.84" gradientTransform="matrix(-1, 0, 0, 1, -4105.29, 0)" xlink:href="#Dégradé_sans_nom_14"/><radialGradient id="Áåçûìÿííûé_ãðàäèåíò_225-3" cx="53.89" cy="441.85" r="30.98" gradientTransform="matrix(1, 0, 0, 1, 0, 0)" xlink:href="#Áåçûìÿííûé_ãðàäèåíò_225"/><linearGradient id="Dégradé_sans_nom_14-33" x1="50.97" y1="442.77" x2="78.26" y2="442.77" xlink:href="#Dégradé_sans_nom_14"/><linearGradient id="Dégradé_sans_nom_14-34" x1="27.97" y1="428.92" x2="59.98" y2="440.4" xlink:href="#Dégradé_sans_nom_14"/></defs><g id="Calque_2" data-name="Calque 2"><g id="Calque_1-2" data-name="Calque 1"><path class="cls-1" d="M75.23,218,29,93.43,220.43,81.75,412.34,93.43,366.07,218Z"/><path class="cls-2" d="M412.34,85.64v7.79H29V85.64c0-22.71,7.65-44.5,21.29-60.57S82.39,0,101.67,0h238c19.29,0,37.79,9,51.43,25.07S412.35,62.93,412.34,85.64Z"/><path class="cls-3" d="M141.33,0c-27.69,0-52,10.43-66.17,31.14a73.63,73.63,0,0,0-12,31.15A97.56,97.56,0,0,0,62,77.86V93.43H29V85.64c0-22.71,7.65-44.5,21.29-60.57S82.39,0,101.67,0Z"/><path class="cls-3" d="M412.34,85.64v7.79h-33V77.86a97.56,97.56,0,0,0-1.19-15.57,73.5,73.5,0,0,0-12-31.15C352,10.43,327.67,0,300,0h39.66c19.29,0,37.79,9,51.43,25.07S412.35,62.93,412.34,85.64Z"/><polygon class="cls-4" points="256.47 184.13 256.57 167.86 245.44 145.56 245.58 164.49 256.47 184.13"/><polygon class="cls-5" points="280.26 201.53 293.83 195.91 322.48 197.27 307.2 202.88 280.26 201.53"/><polygon class="cls-6" points="256.47 184.13 256.57 167.86 295.49 196.33 280.26 201.53 256.47 184.13"/><polygon class="cls-7" points="300.06 175.36 275.28 157.94 265.37 136.68 287.96 139.91 312.74 157.33 322.51 175.53 300.06 175.36"/><polygon class="cls-8" points="300.06 175.36 275.28 157.94 265.37 136.68 276.9 156.21 300.88 173.34 322.51 175.53 300.06 175.36"/><polygon class="cls-9" points="265.37 136.68 245.46 145.66 256.57 167.86 275.28 157.94 265.37 136.68"/><path class="cls-7" d="M265.61,137.15c-2.64,10.07-5.3,19.61-10.16,28.48l1.12,2.23,18.71-9.92Z"/><polygon class="cls-9" points="300.06 175.36 295.49 196.33 322.48 197.27 322.51 175.53 300.06 175.36"/><path class="cls-7" d="M322.51,177.41v-1.87l-22.45-.18-4.57,21,2.24.09C304.53,188.51,312.91,182.55,322.51,177.41Z"/><polygon class="cls-4" points="275.28 157.94 256.57 167.86 295.49 196.33 300.06 175.36 275.28 157.94"/><polygon class="cls-10" points="22.52 165.89 35.44 172.33 29.66 177.9 22.52 165.89"/><polygon class="cls-11" points="35.38 197.6 29.6 177.9 35.38 172.33 93.05 189.61 86.27 203.82 35.38 197.6"/><polygon class="cls-12" points="35.38 197.6 29.6 177.9 35.38 172.33 93.05 189.61 86.27 203.82 35.38 197.6"/><polygon class="cls-13" points="0.03 147.44 22.52 165.89 29.64 177.81 35.41 197.51 0.03 147.44"/><polygon class="cls-14" points="0 147.5 43.14 144.45 86.27 163.09 93.06 189.57 35.38 172.29 22.48 165.94 0 147.5"/><polygon class="cls-15" points="97.77 183.28 110.65 174.18 111.04 167.63 99.55 157.38 97.77 183.28"/><polygon class="cls-16" points="119.1 140.32 99.55 157.38 97.77 183.28 114.84 202.85 140.74 204.6 160.31 187.55 162.07 161.65 144.99 142.09 119.1 140.32"/><polygon class="cls-4" points="97.77 183.28 114.84 202.85 140.74 204.6 160.31 187.55 148.5 176.01 118.99 166.88 97.77 183.28"/><polygon class="cls-17" points="128.03 152.82 133.22 153 144.99 142.09 119.1 140.32 128.03 152.82"/><polygon class="cls-18" points="148.5 176.01 160.31 187.55 162.07 161.65 148.83 170.9 148.5 176.01"/><polygon class="cls-19" points="114.84 202.85 140.74 204.6 131.59 190.76 125.35 191.03 114.84 202.85"/><polygon class="cls-7" points="128.03 152.82 111.04 167.63 110.65 174.18 125.35 191.03 131.59 190.76 148.5 176.01 148.83 170.9 133.22 153 128.03 152.82"/><polygon class="cls-20" points="128.61 158.25 116.56 168.78 116.27 173.42 126.71 185.39 131.13 185.2 143.16 174.72 143.38 171.11 132.29 158.4 128.61 158.25"/><polygon class="cls-14" points="242.03 136.7 236.31 155.56 248.81 155.05 269.14 141.78 263.11 130.34 242.03 136.7"/><polygon class="cls-21" points="236.31 155.56 232.69 160.81 242.03 136.7 236.31 155.56"/><polygon class="cls-22" points="245.87 155.17 252.72 152.49 249.84 157.78 245.87 155.17"/><polygon class="cls-23" points="269.14 141.75 257.65 192.66 255.74 175.03 249.84 157.75 252.72 152.46 269.14 141.75"/><polygon class="cls-24" points="232.69 160.77 236.31 155.52 245.87 155.13 249.84 157.74 255.73 175.03 257.65 192.66 245.44 196.14 238.05 187.91 232.69 160.77"/><polygon class="cls-21" points="245.44 196.14 247.85 197.76 257.65 192.66 245.44 196.14"/><polygon class="cls-25" points="84.44 172.91 53.53 185.22 27.75 182.19 44.06 163.95 74.96 151.65 97.77 153.08 84.44 172.91"/><path class="cls-9" d="M51.78,175.27c0-.08,0-.12,0-.19s-.15-.19-.19-.33C50,170.5,47.25,167,46.28,163.06l-2.22.89L27.75,182.19l25.68,3A65.65,65.65,0,0,0,51.78,175.27Z"/><path class="cls-9" d="M75,151.65l-1.75.69c1.8,4,3.62,7.85,4.2,12.22a4.71,4.71,0,0,1,.66.47c1.93,2.68,4.52,4.93,6.68,7.43l13-19.38Z"/><polygon class="cls-8" points="84.44 172.91 53.53 185.22 27.75 182.19 52.87 183.67 83.84 171.51 97.77 153.08 84.44 172.91"/><polygon class="cls-7" points="80.16 166.53 51.97 177.77 34.66 176.17 45.55 163.34 73.74 152.12 91.05 153.72 80.16 166.53"/><polygon class="cls-7" points="27.75 182.19 24.48 204.87 51.84 207.32 53.53 185.22 27.75 182.19"/><polygon class="cls-7" points="84.44 172.91 101.43 188.61 118.17 165.17 97.77 153.08 84.44 172.91"/><polygon class="cls-4" points="53.53 185.22 51.84 207.32 101.43 188.61 84.44 172.91 53.53 185.22"/><polygon class="cls-8" points="52.29 184.72 51.84 207.32 55.02 184.61 52.29 184.72"/><polygon class="cls-8" points="84.73 171.45 101.5 188.75 82.51 173.32 84.73 171.45"/><polygon class="cls-5" points="24.48 204.87 86.15 223.67 51.84 207.32 24.48 204.87"/><polygon class="cls-6" points="51.84 207.32 86.15 223.67 101.43 188.61 51.84 207.32"/><polygon class="cls-5" points="118.17 165.17 86.15 223.67 101.43 188.61 118.17 165.17"/><path class="cls-26" d="M27,186.46l-2.49,18.41,61.67,18.8L99.68,199S73.36,222.1,27,186.46Z"/><polygon class="cls-4" points="183.35 202.02 173.82 188.83 151.67 177.4 162.96 192.6 183.35 202.02"/><polygon class="cls-5" points="212.82 202.02 220.45 189.47 244.38 173.66 235.36 187.2 212.82 202.02"/><polygon class="cls-6" points="183.35 202.02 173.82 188.83 222.04 188.83 212.82 202.02 183.35 202.02"/><polygon class="cls-7" points="213.35 169.21 183.06 169.78 162.51 158.47 182.66 147.74 212.94 147.17 231.57 156.1 213.35 169.21"/><polygon class="cls-8" points="213.35 169.21 183.06 169.78 162.51 158.47 183.35 167.43 212.82 167.09 231.57 156.1 213.35 169.21"/><polygon class="cls-9" points="162.51 158.47 151.74 177.48 173.82 188.83 183.06 169.78 162.51 158.47"/><path class="cls-7" d="M163,158.71c3.81,9.69,7.3,19,8.61,29l2.22,1.14,9.24-19.05Z"/><polygon class="cls-9" points="213.35 169.21 222.04 188.83 244.38 173.66 231.57 156.1 213.35 169.21"/><path class="cls-7" d="M232.69,157.61l-1.12-1.51-18.22,13.11L222,188.83l1.86-1.25C224.72,177.19,228,167.43,232.69,157.61Z"/><polygon class="cls-4" points="183.06 169.78 173.82 188.83 222.04 188.83 213.35 169.21 183.06 169.78"/><polygon class="cls-25" points="367.82 168.53 398.72 180.84 424.5 177.81 408.2 159.57 377.29 147.27 354.48 148.7 367.82 168.53"/><path class="cls-9" d="M400.47,170.89c0-.08,0-.12,0-.19s.15-.19.19-.33c1.55-4.25,4.31-7.72,5.28-11.69l2.23.89,16.3,18.24-25.68,3A65.65,65.65,0,0,1,400.47,170.89Z"/><path class="cls-9" d="M377.29,147.27,379,148c-1.8,4-3.62,7.85-4.19,12.22a4.19,4.19,0,0,0-.66.47c-1.94,2.68-4.53,4.93-6.68,7.43l-13-19.38Z"/><polygon class="cls-8" points="367.82 168.53 398.72 180.84 424.5 177.81 399.38 179.29 368.41 167.13 354.48 148.7 367.82 168.53"/><polygon class="cls-7" points="372.09 162.15 400.28 173.39 417.59 171.79 406.71 158.96 378.51 147.74 361.21 149.34 372.09 162.15"/><polygon class="cls-7" points="424.5 177.81 427.77 200.49 400.41 202.94 398.72 180.84 424.5 177.81"/><polygon class="cls-7" points="367.82 168.53 350.82 184.23 334.09 160.79 354.48 148.7 367.82 168.53"/><polygon class="cls-4" points="398.72 180.84 400.41 202.94 350.82 184.23 367.82 168.53 398.72 180.84"/><polygon class="cls-8" points="399.96 180.34 400.41 202.94 397.23 180.23 399.96 180.34"/><polygon class="cls-8" points="367.52 167.07 350.75 184.37 369.74 168.94 367.52 167.07"/><polygon class="cls-5" points="427.77 200.49 366.11 219.29 400.41 202.94 427.77 200.49"/><polygon class="cls-6" points="400.41 202.94 366.11 219.29 350.82 184.23 400.41 202.94"/><polygon class="cls-5" points="334.09 160.79 366.11 219.29 350.82 184.23 334.09 160.79"/><path class="cls-26" d="M425.28,182.08l2.49,18.41-61.67,18.8-13.52-24.72S378.9,217.72,425.28,182.08Z"/><polygon class="cls-27" points="293.94 180.6 306.82 171.5 307.21 164.94 295.72 154.7 293.94 180.6"/><polygon class="cls-28" points="315.27 137.63 295.72 154.7 293.94 180.6 311.01 200.17 336.9 201.92 356.48 184.86 358.24 158.96 341.16 139.4 315.27 137.63"/><polygon class="cls-4" points="293.94 180.6 311.01 200.17 336.9 201.92 356.48 184.86 344.67 173.32 315.16 164.2 293.94 180.6"/><polygon class="cls-29" points="324.2 150.13 329.39 150.32 341.16 139.4 315.27 137.63 324.2 150.13"/><polygon class="cls-30" points="344.67 173.32 356.48 184.86 358.24 158.96 345 168.22 344.67 173.32"/><polygon class="cls-31" points="311.01 200.17 336.9 201.92 327.76 188.07 321.52 188.35 311.01 200.17"/><polygon class="cls-7" points="324.2 150.13 307.21 164.94 306.82 171.5 321.52 188.35 327.76 188.07 344.67 173.32 345 168.22 329.39 150.32 324.2 150.13"/><polygon class="cls-32" points="324.78 155.57 312.73 166.09 312.44 170.74 322.88 182.71 327.3 182.52 339.33 172.03 339.55 168.42 328.46 155.72 324.78 155.57"/><path class="cls-2" d="M388.33,202.77c-42,0-165.85-.22-165.85-.22s-123.84.22-165.84.22c-50.16,6.78-40.16,243.78,66,247.31,49-.31,99.84,0,99.84,0s50.85-.31,99.85,0C428.48,446.55,438.48,209.55,388.33,202.77Z"/><path class="cls-1" d="M364.47,418.62c-49-.3-99.85,0-99.85,0s-50.85-.3-99.85,0C81.13,415.84,57.19,268.13,75.32,202.28H56.68c-50.15,6.77-40.15,243.77,66,247.3,49-.3,99.85,0,99.85,0s50.85-.3,99.85,0c24.23-.8,43.46-13.79,58.1-33.42A67.27,67.27,0,0,1,364.47,418.62Z"/><path class="cls-33" d="M404.87,189.83H43.1c-11.38,0-20.62,8.75-20.62,19.54S31.72,228.9,43.1,228.9H188v3.89c0,18.81,16.1,34.06,35.95,34.06s36-15.25,36-34.06V228.9H404.87c11.38,0,20.61-8.74,20.61-19.53s-9.23-19.54-20.61-19.54Z"/><path class="cls-1" d="M241.23,217.15c0-9.62-8.79-17.3-19.18-16.22-8,.84-14.43,7-15.19,14.63a16,16,0,0,0,6.74,14.6,10.41,10.41,0,0,1,4.48,8.41v6.2a5.91,5.91,0,0,0,5.75,5.85,5.79,5.79,0,0,0,6.11-5.61v-6.43a10.55,10.55,0,0,1,4.54-8.47A16,16,0,0,0,241.23,217.15Z"/><polygon class="cls-4" points="330.24 444.87 330.16 430.63 339.9 411.11 339.78 427.68 330.24 444.87"/><polygon class="cls-5" points="309.42 460.1 297.54 455.18 272.46 456.38 285.84 461.29 309.42 460.1"/><polygon class="cls-6" points="330.24 444.87 330.16 430.63 296.09 455.55 309.42 460.1 330.24 444.87"/><polygon class="cls-7" points="292.09 437.2 313.78 421.94 322.45 403.33 302.68 406.17 280.99 421.42 272.44 437.35 292.09 437.2"/><polygon class="cls-8" points="292.09 437.2 313.78 421.94 322.45 403.33 312.36 420.43 291.37 435.43 272.44 437.35 292.09 437.2"/><polygon class="cls-9" points="322.45 403.33 339.89 411.2 330.16 430.63 313.78 421.94 322.45 403.33"/><path class="cls-7" d="M322.25,403.75c2.31,8.81,4.63,17.17,8.89,24.93l-1,1.95-16.38-8.69Z"/><polygon class="cls-9" points="292.09 437.2 296.09 455.55 272.46 456.38 272.44 437.35 292.09 437.2"/><path class="cls-7" d="M272.43,439v-1.64l19.65-.15,4,18.35-2,.08C288.18,448.71,280.84,443.49,272.43,439Z"/><polygon class="cls-4" points="313.78 421.94 330.16 430.63 296.09 455.55 292.09 437.2 313.78 421.94"/><polygon class="cls-10" points="535.03 428.9 523.72 434.55 528.78 439.42 535.03 428.9"/><polygon class="cls-34" points="523.78 456.67 528.83 439.42 523.78 434.54 473.29 449.67 479.23 462.11 523.78 456.67"/><polygon class="cls-35" points="523.78 456.67 528.83 439.42 523.78 434.54 473.29 449.67 479.23 462.11 523.78 456.67"/><polygon class="cls-36" points="554.72 412.76 535.03 428.9 528.8 439.34 523.74 456.59 554.72 412.76"/><polygon class="cls-14" points="554.74 412.81 516.98 410.14 479.22 426.46 473.29 449.63 523.77 434.51 535.06 428.95 554.74 412.81"/><polygon class="cls-37" points="469.16 444.13 457.88 436.16 457.54 430.43 467.61 421.46 469.16 444.13"/><polygon class="cls-38" points="450.49 406.52 467.61 421.46 469.16 444.13 454.22 461.26 431.55 462.79 414.42 447.86 412.88 425.19 427.83 408.07 450.49 406.52"/><polygon class="cls-4" points="469.16 444.13 454.22 461.26 431.55 462.79 414.42 447.86 424.76 437.76 450.59 429.78 469.16 444.13"/><polygon class="cls-39" points="442.67 417.46 438.13 417.63 427.83 408.07 450.49 406.52 442.67 417.46"/><polygon class="cls-40" points="424.76 437.76 414.42 447.86 412.88 425.19 424.46 433.3 424.76 437.76"/><polygon class="cls-41" points="454.22 461.26 431.55 462.79 439.56 450.68 445.02 450.92 454.22 461.26"/><polygon class="cls-7" points="442.67 417.46 457.54 430.43 457.88 436.16 445.02 450.92 439.56 450.68 424.76 437.76 424.46 433.3 438.13 417.63 442.67 417.46"/><polygon class="cls-42" points="442.16 422.22 452.72 431.43 452.96 435.5 443.83 445.98 439.96 445.81 429.42 436.63 429.24 433.47 438.94 422.35 442.16 422.22"/><polygon class="cls-14" points="342.88 403.36 347.89 419.86 336.95 419.42 319.16 407.8 324.43 397.79 342.88 403.36"/><polygon class="cls-21" points="347.89 419.86 351.06 424.46 342.88 403.36 347.89 419.86"/><polygon class="cls-22" points="339.53 419.52 333.53 417.18 336.05 421.81 339.53 419.52"/><polygon class="cls-43" points="319.16 407.77 329.21 452.35 330.89 436.91 336.05 421.78 333.52 417.15 319.16 407.77"/><polygon class="cls-44" points="351.06 424.43 347.89 419.83 339.53 419.49 336.05 421.78 330.89 436.91 329.21 452.34 339.9 455.39 346.37 448.18 351.06 424.43"/><polygon class="cls-21" points="339.9 455.39 337.79 456.81 329.21 452.34 339.9 455.39"/><polygon class="cls-25" points="480.83 435.06 507.88 445.82 530.45 443.17 516.18 427.21 489.13 416.44 469.16 417.7 480.83 435.06"/><path class="cls-9" d="M509.42,437.11c0-.06,0-.1,0-.16s.14-.17.17-.28c1.35-3.73,3.77-6.76,4.62-10.24l1.95.78,14.27,16L508,445.82A57.16,57.16,0,0,1,509.42,437.11Z"/><path class="cls-9" d="M489.13,416.44l1.53.6c-1.58,3.47-3.17,6.88-3.67,10.71a3.22,3.22,0,0,0-.58.41c-1.69,2.34-4,4.31-5.85,6.5l-11.4-17Z"/><polygon class="cls-8" points="480.83 435.06 507.88 445.82 530.45 443.17 508.46 444.47 481.36 433.83 469.16 417.7 480.83 435.06"/><polygon class="cls-7" points="484.57 429.47 509.25 439.31 524.4 437.91 514.87 426.68 490.2 416.85 475.05 418.25 484.57 429.47"/><polygon class="cls-7" points="530.45 443.17 533.31 463.02 509.36 465.17 507.88 445.82 530.45 443.17"/><polygon class="cls-7" points="480.83 435.06 465.95 448.79 451.31 428.28 469.16 417.7 480.83 435.06"/><polygon class="cls-4" points="507.88 445.82 509.36 465.17 465.95 448.79 480.83 435.06 507.88 445.82"/><polygon class="cls-8" points="508.97 445.39 509.36 465.17 506.58 445.3 508.97 445.39"/><polygon class="cls-8" points="480.57 433.78 465.9 448.92 482.52 435.41 480.57 433.78"/><polygon class="cls-5" points="533.31 463.02 479.33 479.49 509.36 465.17 533.31 463.02"/><polygon class="cls-6" points="509.36 465.17 479.33 479.49 465.95 448.79 509.36 465.17"/><polygon class="cls-5" points="451.31 428.28 479.33 479.49 465.95 448.79 451.31 428.28"/><path class="cls-26" d="M531.13,446.92l2.18,16.1-54,16.47-11.84-21.64S490.53,478.11,531.13,446.92Z"/><polygon class="cls-4" points="394.25 460.53 402.59 448.99 421.98 438.99 412.1 452.29 394.25 460.53"/><polygon class="cls-5" points="368.45 460.53 361.77 449.55 340.82 435.71 348.72 447.56 368.45 460.53"/><polygon class="cls-6" points="394.25 460.53 402.59 448.99 360.38 448.99 368.45 460.53 394.25 460.53"/><polygon class="cls-7" points="367.99 431.81 394.5 432.31 412.49 422.41 394.86 413.02 368.35 412.52 352.04 420.33 367.99 431.81"/><polygon class="cls-8" points="367.99 431.81 394.5 432.31 412.49 422.41 394.25 430.25 368.45 429.96 352.04 420.33 367.99 431.81"/><polygon class="cls-9" points="412.49 422.41 421.92 439.05 402.59 448.99 394.5 432.31 412.49 422.41"/><path class="cls-7" d="M412.07,422.63c-3.33,8.47-6.39,16.59-7.54,25.36l-1.94,1-8.09-16.68Z"/><polygon class="cls-9" points="367.99 431.81 360.38 448.99 340.82 435.71 352.04 420.33 367.99 431.81"/><path class="cls-7" d="M351.06,421.66l1-1.33L368,431.81,360.38,449l-1.63-1.09C358,438.8,355.19,430.25,351.06,421.66Z"/><polygon class="cls-4" points="394.5 432.31 402.59 448.99 360.38 448.99 367.99 431.81 394.5 432.31"/><polygon class="cls-25" points="232.78 431.22 205.73 441.99 183.16 439.34 197.43 423.38 224.48 412.61 244.45 413.86 232.78 431.22"/><path class="cls-9" d="M204.19,433.28c0-.06,0-.1,0-.17s-.13-.16-.17-.28c-1.35-3.72-3.77-6.76-4.62-10.23l-1.95.78-14.27,16L205.64,442A57.23,57.23,0,0,0,204.19,433.28Z"/><path class="cls-9" d="M224.48,412.61l-1.53.6c1.58,3.47,3.17,6.87,3.68,10.7a4.3,4.3,0,0,1,.57.41c1.7,2.35,4,4.31,5.85,6.5l11.4-17Z"/><polygon class="cls-8" points="232.78 431.22 205.73 441.99 183.16 439.34 205.15 440.64 232.26 430 244.45 413.86 232.78 431.22"/><polygon class="cls-7" points="229.04 425.63 204.36 435.47 189.21 434.07 198.74 422.84 223.41 413.02 238.56 414.42 229.04 425.63"/><polygon class="cls-7" points="183.16 439.34 180.3 459.19 204.25 461.34 205.73 441.99 183.16 439.34"/><polygon class="cls-7" points="232.78 431.22 247.66 444.96 262.3 424.45 244.45 413.86 232.78 431.22"/><polygon class="cls-4" points="205.73 441.99 204.25 461.34 247.66 444.96 232.78 431.22 205.73 441.99"/><polygon class="cls-8" points="204.64 441.56 204.25 461.34 207.03 441.46 204.64 441.56"/><polygon class="cls-8" points="233.04 429.94 247.71 445.08 231.09 431.57 233.04 429.94"/><polygon class="cls-5" points="180.3 459.19 234.28 475.65 204.25 461.34 180.3 459.19"/><polygon class="cls-6" points="204.25 461.34 234.28 475.65 247.66 444.96 204.25 461.34"/><polygon class="cls-5" points="262.3 424.45 234.28 475.65 247.66 444.96 262.3 424.45"/><path class="cls-26" d="M182.48,443.08l-2.18,16.11,54,16.46L246.12,454S223.08,474.28,182.48,443.08Z"/><polygon class="cls-45" points="297.45 441.78 286.17 433.81 285.83 428.08 295.89 419.12 297.45 441.78"/><polygon class="cls-46" points="278.77 404.18 295.89 419.12 297.45 441.78 282.5 458.91 259.84 460.44 242.71 445.52 241.16 422.84 256.11 405.72 278.77 404.18"/><polygon class="cls-4" points="297.45 441.78 282.5 458.91 259.84 460.44 242.71 445.52 253.04 435.42 278.88 427.43 297.45 441.78"/><polygon class="cls-47" points="270.96 415.12 266.42 415.28 256.11 405.72 278.77 404.18 270.96 415.12"/><polygon class="cls-48" points="253.04 435.42 242.71 445.52 241.16 422.84 252.75 430.95 253.04 435.42"/><polygon class="cls-49" points="282.5 458.91 259.84 460.44 267.85 448.33 273.31 448.57 282.5 458.91"/><polygon class="cls-7" points="270.96 415.12 285.83 428.08 286.17 433.81 273.31 448.57 267.85 448.33 253.04 435.42 252.75 430.95 266.42 415.28 270.96 415.12"/><polygon class="cls-50" points="270.45 419.88 281 429.09 281.25 433.15 272.11 443.63 268.24 443.46 257.71 434.29 257.52 431.13 267.23 420 270.45 419.88"/><polygon class="cls-10" points="47.92 432.2 53.48 435.27 50.99 437.92 47.92 432.2"/><polygon class="cls-51" points="53.45 447.31 50.97 437.92 53.45 435.26 78.26 443.5 75.34 450.27 53.45 447.31"/><polygon class="cls-52" points="53.45 447.31 50.97 437.92 53.45 435.26 78.26 443.5 75.34 450.27 53.45 447.31"/><polygon class="cls-53" points="38.25 423.41 47.92 432.2 50.98 437.87 53.47 447.26 38.25 423.41"/><polygon class="cls-14" points="38.23 423.43 56.79 421.98 75.34 430.86 78.26 443.48 53.45 435.25 47.9 432.22 38.23 423.43"/></g></g></svg>