<svg xmlns="http://www.w3.org/2000/svg" xmlns:xlink="http://www.w3.org/1999/xlink" viewBox="0 0 555.81 791.19"><defs><style>.cls-1{fill:url(#Dégradé_sans_nom_403);}.cls-2{fill:#5fb1e0;}</style><linearGradient id="Dégradé_sans_nom_403" y1="277.9" x2="555.81" y2="277.9" gradientUnits="userSpaceOnUse"><stop offset="0" stop-color="#0ceddc"/><stop offset="0.1" stop-color="#13e5dd"/><stop offset="0.25" stop-color="#25d0e1"/><stop offset="0.43" stop-color="#43aee6"/><stop offset="0.63" stop-color="#6c7eee"/><stop offset="0.86" stop-color="#a141f8"/><stop offset="1" stop-color="#c616ff"/></linearGradient></defs><g id="Calque_2" data-name="Calque 2"><g id="Calque_1-2" data-name="Calque 1">

<path class="cls-1" d="M550.19,264.34,291.46,5.61a19.21,19.21,0,0,0-27.13,0L231.55,38.39a8.14,8.14,0,0,0,11.51,11.52l26.7-26.69V95.5a18.88,18.88,0,0,0-5.42,3.79l-165,165a19.11,19.11,0,0,0-3.75,5.32H23.31L216.21,76.77a8.15,8.15,0,0,0-11.52-11.52L5.61,264.34a19.21,19.21,0,0,0,0,27.13l192,192a8.14,8.14,0,0,0,11.51-11.51l-186-186H95.45a19.25,19.25,0,0,0,3.84,5.52l165,165a18.88,18.88,0,0,0,5.42,3.79v72.28L236,498.78a8.14,8.14,0,1,0-11.51,11.52l39.89,39.9a19.21,19.21,0,0,0,27.13,0L550.19,291.47a19.18,19.18,0,0,0,0-27.13ZM110.8,280a2.9,2.9,0,0,1,0-4.1l165.05-165a2.9,2.9,0,0,1,4.1,0L408.7,239.56A8.15,8.15,0,1,0,420.22,228L291.46,99.29A18.88,18.88,0,0,0,286,95.5V23.22L532.23,269.41H460.14a19.09,19.09,0,0,0-3.63-5.07l-9.44-9.44a8.14,8.14,0,0,0-11.51,11.51l9.44,9.44a2.9,2.9,0,0,1,0,4.1L280,445a2.91,2.91,0,0,1-4.1,0ZM286,532.59V460.31a18.88,18.88,0,0,0,5.42-3.79l165.05-165a19.21,19.21,0,0,0,4-5.78h72.46Z"/>
<path class="cls-2" d="M276.19,367.08c-6.92,0-14.28-.3-22-.62-4.58-.19-9.32-.39-14.13-.52a10.38,10.38,0,0,1-9.85-10.44v-139a10.49,10.49,0,0,1,9.18-10.38c28.35-3.52,49-2,63.19,4.55,12.29,5.71,19.88,15.47,22.56,29,2.88,14.59-.89,28.93-10.65,41.12C328,291.12,333.8,303.3,334,321.13v.45c-1.08,21.83-9.77,35.37-26.58,41.41C298.53,366.19,288,367.08,276.19,367.08Zm-31.6-15.42c3.46.11,6.85.25,10.15.39,43.72,1.8,63.18,1.24,64.87-30.95-.25-15.69-5.29-24-19.86-32.78l-8.1-4.89,6.86-6.51C309,267,313.37,254.79,311,242.52c-2.7-13.67-12.75-28.46-66.36-22.45Z"/></g></g></svg>