<svg xmlns="http://www.w3.org/2000/svg" xmlns:xlink="http://www.w3.org/1999/xlink" viewBox="0 0 427.77 118.05"><defs><style>.cls-1,.cls-16{fill:#ff83bf;}.cls-1,.cls-2,.cls-20,.cls-21,.cls-22,.cls-29,.cls-3,.cls-30,.cls-31,.cls-32,.cls-4,.cls-5{fill-rule:evenodd;}.cls-2{fill:url(#Áåçûìÿííûé_ãðàäèåíò_225);}.cls-3{fill:url(#Dégradé_sans_nom_14);}.cls-4{fill:url(#Dégradé_sans_nom_14-2);}.cls-12,.cls-5{fill:#c616ff;}.cls-6{fill:url(#Dégradé_sans_nom_14-3);}.cls-7{fill:url(#Dégradé_sans_nom_14-4);}.cls-8{fill:#7218ce;}.cls-9{fill:url(#Dégradé_sans_nom_14-5);}.cls-10{fill:url(#Dégradé_sans_nom_14-6);}.cls-11{fill:url(#Dégradé_sans_nom_14-7);}.cls-13{fill:url(#Dégradé_sans_nom_14-8);}.cls-14,.cls-19,.cls-30{fill:#d372f7;}.cls-15{fill:#9217e1;}.cls-17,.cls-29{fill:#2e19a6;}.cls-18{fill:#4519b3;}.cls-19{opacity:0.39;}.cls-20{fill:url(#Áåçûìÿííûé_ãðàäèåíò_225-2);}.cls-21{fill:url(#Dégradé_sans_nom_14-9);}.cls-22{fill:url(#Dégradé_sans_nom_14-10);}.cls-23{fill:url(#Dégradé_sans_nom_14-11);}.cls-24{fill:url(#Dégradé_sans_nom_14-12);}.cls-25{fill:url(#Dégradé_sans_nom_14-13);}.cls-26{fill:url(#Dégradé_sans_nom_14-14);}.cls-27{fill:url(#Dégradé_sans_nom_14-15);}.cls-28{fill:url(#Dégradé_sans_nom_14-16);}.cls-31{fill:url(#Dégradé_sans_nom_14-17);}.cls-32{fill:url(#Dégradé_sans_nom_14-18);}.cls-33{fill:url(#Dégradé_sans_nom_14-19);}.cls-34{fill:url(#Dégradé_sans_nom_14-20);}.cls-35{fill:url(#Dégradé_sans_nom_14-21);}.cls-36{fill:url(#Dégradé_sans_nom_14-22);}.cls-37{fill:url(#Dégradé_sans_nom_14-23);}.cls-38{fill:url(#Dégradé_sans_nom_14-24);}</style><radialGradient id="Áåçûìÿííûé_ãðàäèåíò_225" cx="-5825.56" cy="714.71" r="30.98" gradientTransform="matrix(-2.04, 0, 0, 1.84, -11584, -1271.15)" gradientUnits="userSpaceOnUse"><stop offset="0" stop-color="#f06"/><stop offset="1" stop-color="#590048"/></radialGradient><linearGradient id="Dégradé_sans_nom_14" x1="-7839.09" y1="43.8" x2="-7783.54" y2="43.8" gradientTransform="matrix(-1, 0, 0, 1, -7561.96, 0)" gradientUnits="userSpaceOnUse"><stop offset="0.12" stop-color="#c616ff"/><stop offset="0.87" stop-color="#2e19a6"/></linearGradient><linearGradient id="Dégradé_sans_nom_14-2" x1="-7884.62" y1="17.55" x2="-7821.74" y2="40.09" xlink:href="#Dégradé_sans_nom_14"/><linearGradient id="Dégradé_sans_nom_14-3" x1="-1660.09" y1="3823.17" x2="-1642.63" y2="3823.17" gradientTransform="matrix(-0.66, 0.75, 0.75, 0.66, -3738.21, -1242.64)" xlink:href="#Dégradé_sans_nom_14"/><linearGradient id="Dégradé_sans_nom_14-4" x1="-1655.22" y1="3787.01" x2="-1610.13" y2="3822.23" gradientTransform="matrix(-0.66, 0.75, 0.75, 0.66, -3738.21, -1242.64)" xlink:href="#Dégradé_sans_nom_14"/><linearGradient id="Dégradé_sans_nom_14-5" x1="-7761.82" y1="-15.19" x2="-7763.43" y2="31.73" xlink:href="#Dégradé_sans_nom_14"/><linearGradient id="Dégradé_sans_nom_14-6" x1="-7722.59" y1="30.26" x2="-7752.25" y2="29.73" xlink:href="#Dégradé_sans_nom_14"/><linearGradient id="Dégradé_sans_nom_14-7" x1="-7767.77" y1="68.94" x2="-7764" y2="38.73" xlink:href="#Dégradé_sans_nom_14"/><linearGradient id="Dégradé_sans_nom_14-8" x1="-7756.29" y1="35.47" x2="-7775.17" y2="17.67" xlink:href="#Dégradé_sans_nom_14"/><radialGradient id="Áåçûìÿííûé_ãðàäèåíò_225-2" cx="-1958.52" cy="735.62" r="35.39" gradientTransform="translate(4022.04 -1271.15) scale(2.04 1.84)" xlink:href="#Áåçûìÿííûé_ãðàäèåíò_225"/><linearGradient id="Dégradé_sans_nom_14-9" x1="29.6" y1="82.45" x2="93.05" y2="82.45" gradientTransform="matrix(1, 0, 0, 1, 0, 0)" xlink:href="#Dégradé_sans_nom_14"/><linearGradient id="Dégradé_sans_nom_14-10" x1="-22.42" y1="52.47" x2="49.42" y2="78.22" gradientTransform="matrix(1, 0, 0, 1, 0, 0)" xlink:href="#Dégradé_sans_nom_14"/><linearGradient id="Dégradé_sans_nom_14-11" x1="3554.32" y1="-2097.26" x2="3574.28" y2="-2097.26" gradientTransform="matrix(0.66, 0.75, -0.75, 0.66, -3823.75, -1242.64)" xlink:href="#Dégradé_sans_nom_14"/><linearGradient id="Dégradé_sans_nom_14-12" x1="3559.89" y1="-2138.57" x2="3611.4" y2="-2098.33" gradientTransform="matrix(0.66, 0.75, -0.75, 0.66, -3823.75, -1242.64)" xlink:href="#Dégradé_sans_nom_14"/><linearGradient id="Dégradé_sans_nom_14-13" x1="132.68" y1="17.34" x2="130.83" y2="70.95" gradientTransform="matrix(1, 0, 0, 1, 0, 0)" xlink:href="#Dégradé_sans_nom_14"/><linearGradient id="Dégradé_sans_nom_14-14" x1="177.49" y1="69.27" x2="143.6" y2="68.65" gradientTransform="matrix(1, 0, 0, 1, 0, 0)" xlink:href="#Dégradé_sans_nom_14"/><linearGradient id="Dégradé_sans_nom_14-15" x1="125.87" y1="113.45" x2="130.18" y2="78.94" gradientTransform="matrix(1, 0, 0, 1, 0, 0)" xlink:href="#Dégradé_sans_nom_14"/><linearGradient id="Dégradé_sans_nom_14-16" x1="138.99" y1="75.21" x2="117.42" y2="54.88" gradientTransform="matrix(1, 0, 0, 1, 0, 0)" xlink:href="#Dégradé_sans_nom_14"/><linearGradient id="Dégradé_sans_nom_14-17" x1="252.59" y1="74.2" x2="261.37" y2="39.08" gradientTransform="matrix(1, 0, 0, 1, 0, 0)" xlink:href="#Dégradé_sans_nom_14"/><linearGradient id="Dégradé_sans_nom_14-18" x1="261.31" y1="92.58" x2="231.27" y2="48.68" gradientTransform="matrix(1, 0, 0, 1, 0, 0)" xlink:href="#Dégradé_sans_nom_14"/><linearGradient id="Dégradé_sans_nom_14-19" x1="3681.25" y1="-2246.84" x2="3701.21" y2="-2246.84" gradientTransform="matrix(0.66, 0.75, -0.75, 0.66, -3823.75, -1242.64)" xlink:href="#Dégradé_sans_nom_14"/><linearGradient id="Dégradé_sans_nom_14-20" x1="3686.82" y1="-2288.15" x2="3738.33" y2="-2247.92" gradientTransform="matrix(0.66, 0.75, -0.75, 0.66, -3823.75, -1242.64)" xlink:href="#Dégradé_sans_nom_14"/><linearGradient id="Dégradé_sans_nom_14-21" x1="328.85" y1="14.66" x2="327" y2="68.26" gradientTransform="matrix(1, 0, 0, 1, 0, 0)" xlink:href="#Dégradé_sans_nom_14"/><linearGradient id="Dégradé_sans_nom_14-22" x1="373.66" y1="66.59" x2="339.77" y2="65.97" gradientTransform="matrix(1, 0, 0, 1, 0, 0)" xlink:href="#Dégradé_sans_nom_14"/><linearGradient id="Dégradé_sans_nom_14-23" x1="322.04" y1="110.77" x2="326.35" y2="76.26" gradientTransform="matrix(1, 0, 0, 1, 0, 0)" xlink:href="#Dégradé_sans_nom_14"/><linearGradient id="Dégradé_sans_nom_14-24" x1="335.16" y1="72.53" x2="313.59" y2="52.2" gradientTransform="matrix(1, 0, 0, 1, 0, 0)" xlink:href="#Dégradé_sans_nom_14"/></defs><g id="Calque_2" data-name="Calque 2"><g id="Calque_1-2" data-name="Calque 1"><polygon class="cls-1" points="283.33 24.38 272.02 30.02 277.07 34.89 283.33 24.38"/><polygon class="cls-2" points="272.07 52.14 277.13 34.89 272.07 30.02 221.59 45.14 227.52 57.58 272.07 52.14"/><polygon class="cls-3" points="272.07 52.14 277.13 34.89 272.07 30.02 221.59 45.14 227.52 57.58 272.07 52.14"/><polygon class="cls-4" points="303.01 8.23 283.33 24.38 277.1 34.81 272.04 52.06 303.01 8.23"/><polygon class="cls-5" points="303.04 8.28 265.28 5.61 227.52 21.93 221.58 45.11 272.07 29.98 283.36 24.42 303.04 8.28"/><polygon class="cls-6" points="230.41 37.61 219.13 29.64 218.79 23.91 228.85 14.94 230.41 37.61"/><polygon class="cls-7" points="211.74 0 228.85 14.94 230.41 37.61 215.47 54.74 192.8 56.27 175.67 41.34 174.13 18.67 189.08 1.55 211.74 0"/><polygon class="cls-8" points="230.41 37.61 215.47 54.74 192.8 56.27 175.67 41.34 186 31.24 211.84 23.26 230.41 37.61"/><polygon class="cls-9" points="203.92 10.94 199.38 11.11 189.08 1.55 211.74 0 203.92 10.94"/><polygon class="cls-10" points="186 31.24 175.67 41.34 174.13 18.67 185.72 26.77 186 31.24"/><polygon class="cls-11" points="215.47 54.74 192.8 56.27 200.81 44.15 206.27 44.39 215.47 54.74"/><polygon class="cls-12" points="203.92 10.94 218.79 23.91 219.13 29.64 206.27 44.39 200.81 44.15 186 31.24 185.72 26.77 199.38 11.11 203.92 10.94"/><polygon class="cls-13" points="203.41 15.7 213.97 24.91 214.22 28.98 205.07 39.46 201.21 39.29 190.67 30.11 190.49 26.95 200.19 15.83 203.41 15.7"/><polygon class="cls-14" points="179.01 41.1 206.06 51.87 228.63 49.22 214.36 33.26 187.31 22.49 167.34 23.74 179.01 41.1"/><path class="cls-15" d="M207.6,43.16c0-.06,0-.1,0-.17s.13-.16.16-.28c1.36-3.72,3.78-6.76,4.63-10.23l2,.78,14.27,16-22.48,2.64A57.23,57.23,0,0,1,207.6,43.16Z"/><path class="cls-15" d="M187.31,22.49l1.52.6c-1.57,3.47-3.16,6.87-3.67,10.7a4.38,4.38,0,0,0-.58.41c-1.69,2.35-4,4.31-5.84,6.5l-11.4-17Z"/><polygon class="cls-16" points="179.01 41.1 206.06 51.87 228.63 49.22 206.64 50.52 179.53 39.88 167.34 23.74 179.01 41.1"/><polygon class="cls-12" points="182.75 35.51 207.43 45.35 222.58 43.95 213.05 32.72 188.38 22.9 173.22 24.3 182.75 35.51"/><polygon class="cls-12" points="228.63 49.22 231.49 69.07 207.54 71.22 206.06 51.87 228.63 49.22"/><polygon class="cls-12" points="179.01 41.1 164.13 54.84 149.49 34.33 167.34 23.74 179.01 41.1"/><polygon class="cls-8" points="206.06 51.87 207.54 71.22 164.13 54.84 179.01 41.1 206.06 51.87"/><polygon class="cls-16" points="207.15 51.44 207.54 71.22 204.76 51.34 207.15 51.44"/><polygon class="cls-16" points="178.75 39.82 164.07 54.96 180.69 41.45 178.75 39.82"/><polygon class="cls-17" points="231.49 69.07 177.51 85.53 207.54 71.22 231.49 69.07"/><polygon class="cls-18" points="207.54 71.22 177.51 85.53 164.13 54.84 207.54 71.22"/><polygon class="cls-17" points="149.49 34.33 177.51 85.53 164.13 54.84 149.49 34.33"/><path class="cls-19" d="M229.31,53l2.18,16.11-54,16.46L165.67,63.9S188.71,84.16,229.31,53Z"/><polygon class="cls-8" points="155.5 54.01 163.84 42.47 183.23 32.46 173.35 45.77 155.5 54.01"/><polygon class="cls-17" points="129.7 54.01 123.02 43.02 102.07 29.18 109.97 41.04 129.7 54.01"/><polygon class="cls-18" points="155.5 54.01 163.84 42.47 121.63 42.47 129.7 54.01 155.5 54.01"/><polygon class="cls-12" points="129.24 25.29 155.75 25.79 173.74 15.89 156.1 6.5 129.6 6 113.29 13.81 129.24 25.29"/><polygon class="cls-16" points="129.24 25.29 155.75 25.79 173.74 15.89 155.5 23.73 129.7 23.44 113.29 13.81 129.24 25.29"/><polygon class="cls-15" points="173.74 15.89 183.16 32.53 163.84 42.47 155.75 25.79 173.74 15.89"/><path class="cls-12" d="M173.32,16.1c-3.33,8.48-6.39,16.6-7.54,25.37l-1.94,1-8.09-16.68Z"/><polygon class="cls-15" points="129.24 25.29 121.63 42.47 102.07 29.18 113.29 13.81 129.24 25.29"/><path class="cls-12" d="M112.31,15.14l1-1.33,15.94,11.48-7.6,17.18L120,41.37C119.28,32.27,116.44,23.73,112.31,15.14Z"/><polygon class="cls-8" points="155.75 25.79 163.84 42.47 121.63 42.47 129.24 25.29 155.75 25.79"/><polygon class="cls-8" points="256.47 78.51 256.57 62.24 245.44 39.94 245.58 58.87 256.47 78.51"/><polygon class="cls-17" points="280.26 95.91 293.83 90.28 322.48 91.65 307.2 97.26 280.26 95.91"/><polygon class="cls-18" points="256.47 78.51 256.57 62.24 295.49 90.71 280.26 95.91 256.47 78.51"/><polygon class="cls-12" points="300.06 69.74 275.28 52.31 265.37 31.05 287.96 34.29 312.74 51.71 322.51 69.91 300.06 69.74"/><polygon class="cls-16" points="300.06 69.74 275.28 52.31 265.37 31.05 276.9 50.59 300.88 67.72 322.51 69.91 300.06 69.74"/><polygon class="cls-15" points="265.37 31.05 245.46 40.04 256.57 62.24 275.28 52.31 265.37 31.05"/><path class="cls-12" d="M265.61,31.53C263,41.6,260.31,51.14,255.45,60l1.12,2.23,18.71-9.93Z"/><polygon class="cls-15" points="300.06 69.74 295.49 90.71 322.48 91.65 322.51 69.91 300.06 69.74"/><path class="cls-12" d="M322.51,71.79V69.91l-22.45-.17-4.57,21,2.24.09C304.53,82.89,312.91,76.93,322.51,71.79Z"/><polygon class="cls-8" points="275.28 52.31 256.57 62.24 295.49 90.71 300.06 69.74 275.28 52.31"/><polygon class="cls-1" points="22.52 60.27 35.44 66.71 29.66 72.28 22.52 60.27"/><polygon class="cls-20" points="35.38 91.98 29.6 72.28 35.38 66.71 93.05 83.99 86.27 98.2 35.38 91.98"/><polygon class="cls-21" points="35.38 91.98 29.6 72.28 35.38 66.71 93.05 83.99 86.27 98.2 35.38 91.98"/><polygon class="cls-22" points="0.03 41.82 22.52 60.27 29.64 72.19 35.41 91.89 0.03 41.82"/><polygon class="cls-5" points="0 41.87 43.14 38.83 86.27 57.47 93.06 83.95 35.38 66.67 22.48 60.32 0 41.87"/><polygon class="cls-23" points="97.77 77.66 110.65 68.56 111.04 62.01 99.55 51.76 97.77 77.66"/><polygon class="cls-24" points="119.1 34.7 99.55 51.76 97.77 77.66 114.84 97.23 140.74 98.98 160.31 81.92 162.07 56.02 144.99 36.46 119.1 34.7"/><polygon class="cls-8" points="97.77 77.66 114.84 97.23 140.74 98.98 160.31 81.92 148.5 70.38 118.99 61.26 97.77 77.66"/><polygon class="cls-25" points="128.03 47.2 133.22 47.38 144.99 36.46 119.1 34.7 128.03 47.2"/><polygon class="cls-26" points="148.5 70.38 160.31 81.92 162.07 56.02 148.83 65.28 148.5 70.38"/><polygon class="cls-27" points="114.84 97.23 140.74 98.98 131.59 85.14 125.35 85.41 114.84 97.23"/><polygon class="cls-12" points="128.03 47.2 111.04 62.01 110.65 68.56 125.35 85.41 131.59 85.14 148.5 70.38 148.83 65.28 133.22 47.38 128.03 47.2"/><polygon class="cls-28" points="128.61 52.63 116.56 63.15 116.27 67.8 126.71 79.77 131.13 79.58 143.16 69.09 143.38 65.48 132.29 52.78 128.61 52.63"/><polygon class="cls-5" points="242.03 31.08 236.31 49.94 248.81 49.43 269.14 36.16 263.11 24.72 242.03 31.08"/><polygon class="cls-29" points="236.31 49.94 232.69 55.18 242.03 31.08 236.31 49.94"/><polygon class="cls-30" points="245.87 49.55 252.72 46.87 249.84 52.16 245.87 49.55"/><polygon class="cls-31" points="269.14 36.12 257.65 87.04 255.74 69.41 249.84 52.12 252.72 46.84 269.14 36.12"/><polygon class="cls-32" points="232.69 55.15 236.31 49.9 245.87 49.51 249.84 52.12 255.73 69.41 257.65 87.04 245.44 90.52 238.05 82.29 232.69 55.15"/><polygon class="cls-29" points="245.44 90.52 247.85 92.14 257.65 87.04 245.44 90.52"/><polygon class="cls-14" points="84.44 67.29 53.53 79.59 27.75 76.56 44.06 58.33 74.96 46.03 97.77 47.46 84.44 67.29"/><path class="cls-15" d="M51.78,69.64c0-.07,0-.11,0-.19s-.15-.19-.19-.32c-1.55-4.26-4.31-7.72-5.28-11.69l-2.22.89L27.75,76.57l25.68,3A66.07,66.07,0,0,0,51.78,69.64Z"/><path class="cls-15" d="M75,46l-1.75.68c1.8,4,3.62,7.86,4.2,12.23a4.71,4.71,0,0,1,.66.47c1.93,2.68,4.52,4.92,6.68,7.43l13-19.38Z"/><polygon class="cls-16" points="84.44 67.29 53.53 79.59 27.75 76.56 52.87 78.05 83.84 65.89 97.77 47.46 84.44 67.29"/><polygon class="cls-12" points="80.16 60.91 51.97 72.15 34.66 70.55 45.55 57.72 73.74 46.5 91.05 48.09 80.16 60.91"/><polygon class="cls-12" points="27.75 76.56 24.48 99.24 51.84 101.7 53.53 79.59 27.75 76.56"/><polygon class="cls-12" points="84.44 67.29 101.43 82.99 118.17 59.55 97.77 47.46 84.44 67.29"/><polygon class="cls-8" points="53.53 79.59 51.84 101.7 101.43 82.99 84.44 67.29 53.53 79.59"/><polygon class="cls-16" points="52.29 79.1 51.84 101.7 55.02 78.99 52.29 79.1"/><polygon class="cls-16" points="84.73 65.83 101.5 83.13 82.51 67.69 84.73 65.83"/><polygon class="cls-17" points="24.48 99.24 86.15 118.05 51.84 101.7 24.48 99.24"/><polygon class="cls-18" points="51.84 101.7 86.15 118.05 101.43 82.99 51.84 101.7"/><polygon class="cls-17" points="118.17 59.55 86.15 118.05 101.43 82.99 118.17 59.55"/><path class="cls-19" d="M27,80.84l-2.49,18.4,61.67,18.81L99.68,93.33S73.36,116.48,27,80.84Z"/><polygon class="cls-8" points="183.35 96.4 173.82 83.21 151.67 71.78 162.96 86.98 183.35 96.4"/><polygon class="cls-17" points="212.82 96.4 220.45 83.85 244.38 68.03 235.36 81.58 212.82 96.4"/><polygon class="cls-18" points="183.35 96.4 173.82 83.21 222.04 83.21 212.82 96.4 183.35 96.4"/><polygon class="cls-12" points="213.35 63.59 183.06 64.16 162.51 52.84 182.66 42.12 212.94 41.55 231.57 50.48 213.35 63.59"/><polygon class="cls-16" points="213.35 63.59 183.06 64.16 162.51 52.84 183.35 61.8 212.82 61.47 231.57 50.48 213.35 63.59"/><polygon class="cls-15" points="162.51 52.84 151.74 71.86 173.82 83.21 183.06 64.16 162.51 52.84"/><path class="cls-12" d="M163,53.09c3.81,9.68,7.3,19,8.61,29l2.22,1.14,9.24-19Z"/><polygon class="cls-15" points="213.35 63.59 222.04 83.21 244.38 68.03 231.57 50.48 213.35 63.59"/><path class="cls-12" d="M232.69,52l-1.12-1.52L213.35,63.59,222,83.21,223.9,82C224.72,71.57,228,61.8,232.69,52Z"/><polygon class="cls-8" points="183.06 64.16 173.82 83.21 222.04 83.21 213.35 63.59 183.06 64.16"/><polygon class="cls-14" points="367.82 62.91 398.72 75.21 424.5 72.19 408.2 53.95 377.29 41.65 354.48 43.08 367.82 62.91"/><path class="cls-15" d="M400.47,65.26c0-.07,0-.11,0-.19s.15-.19.19-.32C402.24,60.49,405,57,406,53.06l2.23.89,16.3,18.24-25.68,3A66.07,66.07,0,0,1,400.47,65.26Z"/><path class="cls-15" d="M377.29,41.65l1.75.68c-1.8,4-3.62,7.86-4.19,12.23a4.19,4.19,0,0,0-.66.47c-1.94,2.68-4.53,4.92-6.68,7.43l-13-19.38Z"/><polygon class="cls-16" points="367.82 62.91 398.72 75.21 424.5 72.19 399.38 73.67 368.41 61.51 354.48 43.08 367.82 62.91"/><polygon class="cls-12" points="372.09 56.53 400.28 67.77 417.59 66.17 406.71 53.34 378.51 42.12 361.21 43.72 372.09 56.53"/><polygon class="cls-12" points="424.5 72.19 427.77 94.86 400.41 97.32 398.72 75.21 424.5 72.19"/><polygon class="cls-12" points="367.82 62.91 350.82 78.61 334.09 55.17 354.48 43.08 367.82 62.91"/><polygon class="cls-8" points="398.72 75.21 400.41 97.32 350.82 78.61 367.82 62.91 398.72 75.21"/><polygon class="cls-16" points="399.96 74.72 400.41 97.32 397.23 74.61 399.96 74.72"/><polygon class="cls-16" points="367.52 61.45 350.75 78.75 369.74 63.31 367.52 61.45"/><polygon class="cls-17" points="427.77 94.86 366.11 113.67 400.41 97.32 427.77 94.86"/><polygon class="cls-18" points="400.41 97.32 366.11 113.67 350.82 78.61 400.41 97.32"/><polygon class="cls-17" points="334.09 55.17 366.11 113.67 350.82 78.61 334.09 55.17"/><path class="cls-19" d="M425.28,76.46l2.49,18.4L366.1,113.67,352.58,89S378.9,112.1,425.28,76.46Z"/><polygon class="cls-33" points="293.94 74.98 306.82 65.87 307.21 59.32 295.72 49.08 293.94 74.98"/><polygon class="cls-34" points="315.27 32.01 295.72 49.08 293.94 74.98 311.01 94.54 336.9 96.3 356.48 79.24 358.24 53.34 341.16 33.78 315.27 32.01"/><polygon class="cls-8" points="293.94 74.98 311.01 94.54 336.9 96.3 356.48 79.24 344.67 67.7 315.16 58.58 293.94 74.98"/><polygon class="cls-35" points="324.2 44.51 329.39 44.7 341.16 33.78 315.27 32.01 324.2 44.51"/><polygon class="cls-36" points="344.67 67.7 356.48 79.24 358.24 53.34 345 62.6 344.67 67.7"/><polygon class="cls-37" points="311.01 94.54 336.9 96.3 327.76 82.45 321.52 82.73 311.01 94.54"/><polygon class="cls-12" points="324.2 44.51 307.21 59.32 306.82 65.87 321.52 82.73 327.76 82.45 344.67 67.7 345 62.6 329.39 44.7 324.2 44.51"/><polygon class="cls-38" points="324.78 49.95 312.73 60.47 312.44 65.12 322.88 77.09 327.3 76.9 339.33 66.41 339.55 62.8 328.46 50.09 324.78 49.95"/></g></g></svg>